<?xml version="1.0" encoding="UTF-8"?>
<svg version="1.1" xmlns="http://www.w3.org/2000/svg" width="500" height="500">
<path d="M0 0 C0.89137382 0.00092179 1.78274763 0.00184359 2.70113277 0.00279331 C4.23036373 0.00073132 4.23036373 0.00073132 5.79048824 -0.00137234 C6.91833233 0.00222294 8.04617641 0.00581821 9.20819759 0.00952244 C10.38852566 0.00937641 11.56885372 0.00923038 12.7849493 0.00907993 C16.03067141 0.00965888 19.27635088 0.01468796 22.52206445 0.02165389 C25.91068065 0.02788821 29.29929761 0.02849129 32.68791866 0.0296793 C39.10880837 0.03279238 45.52968114 0.04100546 51.95056337 0.05102879 C59.25878857 0.06219063 66.56701457 0.06770055 73.87524617 0.07272422 C88.91259034 0.0831881 103.94991864 0.1007871 118.98725033 0.12304783 C119.9211632 3.57606513 120.10249678 6.61277223 120.08490658 10.20117283 C120.08240902 11.24692478 120.07991146 12.29267673 120.07733822 13.37011814 C120.06823421 14.69108494 120.05913021 16.01205173 120.04975033 17.37304783 C120.02912533 21.58054783 120.00850033 25.78804783 119.98725033 30.12304783 C129.55725033 30.12304783 139.12725033 30.12304783 148.98725033 30.12304783 C150.37033814 32.88922346 150.09935229 35.13322783 150.08490658 38.22461033 C150.08240902 39.31596287 150.07991146 40.40731541 150.07733822 41.53173923 C150.06823421 42.92312107 150.05913021 44.31450291 150.04975033 45.74804783 C150.02912533 50.16179783 150.00850033 54.57554783 149.98725033 59.12304783 C158.89725033 59.12304783 167.80725033 59.12304783 176.98725033 59.12304783 C176.94768953 50.32736278 176.94768953 50.32736278 176.89716244 41.53173923 C176.8934161 39.89471043 176.8934161 39.89471043 176.88959408 38.22461033 C176.88435726 37.10393162 176.87912045 35.98325291 176.87372494 34.82861423 C176.98725033 32.12304783 176.98725033 32.12304783 177.98725033 30.12304783 C187.88725033 30.12304783 197.78725033 30.12304783 207.98725033 30.12304783 C207.98725033 20.22304783 207.98725033 10.32304783 207.98725033 0.12304783 C223.74642097 0.10050054 239.5055789 0.0820685 255.26476097 0.07123566 C262.58152435 0.06607277 269.89827702 0.0590302 277.21503353 0.04760838 C283.59008051 0.03766132 289.96511973 0.03119435 296.34017426 0.02895933 C299.71773047 0.02765226 303.09526449 0.02456664 306.47281361 0.01731777 C310.23732376 0.0101117 314.00178718 0.0090567 317.76630306 0.00952244 C318.89414715 0.00592716 320.02199123 0.00233189 321.18401241 -0.00137234 C322.71324337 0.00068966 322.71324337 0.00068966 324.27336788 0.00279331 C325.1647417 0.00187152 326.05611551 0.00094973 326.97450066 0 C328.98725033 0.12304783 328.98725033 0.12304783 329.98725033 1.12304783 C330.07500638 3.2686361 330.09420252 5.41709204 330.08490658 7.56445408 C330.08168392 8.86962986 330.07846127 10.17480564 330.07514095 11.5195322 C330.06678434 12.90820473 330.05831938 14.2968766 330.04975033 15.68554783 C330.04473699 17.07812439 330.04017379 18.47070264 330.03607845 19.8632822 C330.02424467 23.28324653 330.00775913 26.70312627 329.98725033 30.12304783 C331.29713924 30.1151926 331.29713924 30.1151926 332.63349056 30.10717869 C335.86314305 30.09017032 339.09277278 30.07761414 342.32245541 30.06811619 C343.72220261 30.06307703 345.12194453 30.05624566 346.52167416 30.04760838 C348.52970809 30.03552463 350.5377799 30.03034976 352.54584408 30.02539158 C354.36040096 30.01753635 354.36040096 30.01753635 356.21161556 30.00952244 C358.98725033 30.12304783 358.98725033 30.12304783 359.98725033 31.12304783 C360.07500638 33.2686361 360.09420252 35.41709204 360.08490658 37.56445408 C360.08168392 38.86962986 360.07846127 40.17480564 360.07514095 41.5195322 C360.06678434 42.90820473 360.05831938 44.2968766 360.04975033 45.68554783 C360.04473699 47.07812439 360.04017379 48.47070264 360.03607845 49.8632822 C360.02424467 53.28324653 360.00775913 56.70312627 359.98725033 60.12304783 C361.29713924 60.1151926 361.29713924 60.1151926 362.63349056 60.10717869 C365.86314305 60.09017032 369.09277278 60.07761414 372.32245541 60.06811619 C373.72220261 60.06307703 375.12194453 60.05624566 376.52167416 60.04760838 C378.52970809 60.03552463 380.5377799 60.03034976 382.54584408 60.02539158 C384.36040096 60.01753635 384.36040096 60.01753635 386.21161556 60.00952244 C388.98725033 60.12304783 388.98725033 60.12304783 389.98725033 61.12304783 C390.0860678 63.05702272 390.1135726 64.9946556 390.11423397 66.9311533 C390.11705379 68.19320591 390.11987362 69.45525852 390.12277889 70.75555515 C390.1208343 72.16711535 390.11878611 73.57867541 390.11664486 74.99023533 C390.11799885 76.46657447 390.11977877 77.94291328 390.12195492 79.41925144 C390.12652952 83.43980067 390.12473958 87.46032436 390.12157583 91.48087406 C390.11905237 95.67914495 390.12138973 99.87741358 390.122962 104.07568455 C390.12478373 111.12728361 390.12237728 118.17887222 390.11762142 125.2304697 C390.11217879 133.39487833 390.11394145 141.55926199 390.11944783 149.72367001 C390.12397885 156.72067765 390.12462956 163.71767776 390.12200916 170.71468639 C390.12044632 174.8992933 390.1202528 179.08388845 390.12354565 183.26849461 C390.1264242 187.20168069 390.12444897 191.13483443 390.11865139 195.06801701 C390.1173237 196.51567373 390.11771805 197.96333314 390.11991405 199.41098881 C390.12262519 201.37897237 390.11863106 203.34696184 390.11423397 205.31494236 C390.11385695 206.41887333 390.11347992 207.5228043 390.11309147 208.66018772 C389.98725033 211.12304783 389.98725033 211.12304783 388.98725033 212.12304783 C386.84166206 212.21080388 384.69320612 212.23000002 382.54584408 212.22070408 C381.2406683 212.21748142 379.93549252 212.21425877 378.59076595 212.21093845 C377.20209343 212.20258184 375.81342156 212.19411688 374.42475033 212.18554783 C373.03217377 212.18053449 371.63959551 212.17597129 370.24701595 212.17187595 C366.82705162 212.16004217 363.40717189 212.14355663 359.98725033 212.12304783 C359.99510555 213.43293674 359.99510555 213.43293674 360.00311947 214.76928806 C360.02012784 217.99894055 360.03268402 221.22857028 360.04218197 224.45825291 C360.04722112 225.85800011 360.05405249 227.25774203 360.06268978 228.65747166 C360.07477353 230.6655056 360.07994839 232.6735774 360.08490658 234.68164158 C360.0927618 236.49619846 360.0927618 236.49619846 360.10077572 238.34741306 C359.98725033 241.12304783 359.98725033 241.12304783 358.98725033 242.12304783 C356.84166206 242.21080388 354.69320612 242.23000002 352.54584408 242.22070408 C351.2406683 242.21748142 349.93549252 242.21425877 348.59076595 242.21093845 C347.20209343 242.20258184 345.81342156 242.19411688 344.42475033 242.18554783 C343.03217377 242.18053449 341.63959551 242.17597129 340.24701595 242.17187595 C336.82705162 242.16004217 333.40717189 242.14355663 329.98725033 242.12304783 C329.99510555 243.43293674 329.99510555 243.43293674 330.00311947 244.76928806 C330.02012784 247.99894055 330.03268402 251.22857028 330.04218197 254.45825291 C330.04722112 255.85800011 330.05405249 257.25774203 330.06268978 258.65747166 C330.07477353 260.6655056 330.07994839 262.6735774 330.08490658 264.68164158 C330.0927618 266.49619846 330.0927618 266.49619846 330.10077572 268.34741306 C329.98725033 271.12304783 329.98725033 271.12304783 328.98725033 272.12304783 C326.84166206 272.21080388 324.69320612 272.23000002 322.54584408 272.22070408 C321.2406683 272.21748142 319.93549252 272.21425877 318.59076595 272.21093845 C317.20209343 272.20258184 315.81342156 272.19411688 314.42475033 272.18554783 C313.03217377 272.18053449 311.63959551 272.17597129 310.24701595 272.17187595 C306.82705162 272.16004217 303.40717189 272.14355663 299.98725033 272.12304783 C299.99510555 273.43293674 299.99510555 273.43293674 300.00311947 274.76928806 C300.02012784 277.99894055 300.03268402 281.22857028 300.04218197 284.45825291 C300.04722112 285.85800011 300.05405249 287.25774203 300.06268978 288.65747166 C300.07477353 290.6655056 300.07994839 292.6735774 300.08490658 294.68164158 C300.0927618 296.49619846 300.0927618 296.49619846 300.10077572 298.34741306 C299.98725033 301.12304783 299.98725033 301.12304783 298.98725033 302.12304783 C296.84166206 302.21080388 294.69320612 302.23000002 292.54584408 302.22070408 C291.2406683 302.21748142 289.93549252 302.21425877 288.59076595 302.21093845 C287.20209343 302.20258184 285.81342156 302.19411688 284.42475033 302.18554783 C283.03217377 302.18053449 281.63959551 302.17597129 280.24701595 302.17187595 C276.82705162 302.16004217 273.40717189 302.14355663 269.98725033 302.12304783 C269.99510555 303.43293674 269.99510555 303.43293674 270.00311947 304.76928806 C270.02012784 307.99894055 270.03268402 311.22857028 270.04218197 314.45825291 C270.04722112 315.85800011 270.05405249 317.25774203 270.06268978 318.65747166 C270.07477353 320.6655056 270.07994839 322.6735774 270.08490658 324.68164158 C270.0927618 326.49619846 270.0927618 326.49619846 270.10077572 328.34741306 C269.98725033 331.12304783 269.98725033 331.12304783 268.98725033 332.12304783 C266.84166206 332.21080388 264.69320612 332.23000002 262.54584408 332.22070408 C261.2406683 332.21748142 259.93549252 332.21425877 258.59076595 332.21093845 C257.20209343 332.20258184 255.81342156 332.19411688 254.42475033 332.18554783 C253.03217377 332.18053449 251.63959551 332.17597129 250.24701595 332.17187595 C246.82705162 332.16004217 243.40717189 332.14355663 239.98725033 332.12304783 C239.99772396 332.99107029 240.00819759 333.85909275 240.01898861 334.75341892 C240.05304749 337.97004311 240.078138 341.1865755 240.09711361 344.40332127 C240.1071791 345.79625564 240.12083267 347.18916885 240.13812923 348.5820322 C240.16235253 350.58259142 240.17265846 352.58330398 240.18256283 354.58398533 C240.19303646 355.7884531 240.20351009 356.99292088 240.21430111 358.23388767 C239.98725033 361.12304783 239.98725033 361.12304783 237.98725033 363.12304783 C235.18988705 363.35009861 235.18988705 363.35009861 231.66693783 363.31836033 C230.41010189 363.31191502 229.15326595 363.3054697 227.85834408 363.29882908 C226.53963314 363.28207127 225.2209222 363.26531345 223.86225033 363.24804783 C222.52241312 363.23801765 221.18256881 363.22889187 219.84271908 363.22070408 C216.5573846 363.19706858 213.27240568 363.16412017 209.98725033 363.12304783 C209.99232601 364.03723484 209.9974017 364.95142185 210.00263119 365.8933115 C210.02370196 372.42826138 209.99727132 378.91551118 209.54975033 385.43554783 C209.46853939 386.68980564 209.38732845 387.94406345 209.30365658 389.23632908 C208.98725033 392.12304783 208.98725033 392.12304783 207.98725033 393.12304783 C205.84166206 393.21080388 203.69320612 393.23000002 201.54584408 393.22070408 C200.2406683 393.21748142 198.93549252 393.21425877 197.59076595 393.21093845 C196.20209343 393.20258184 194.81342156 393.19411688 193.42475033 393.18554783 C192.03217377 393.18053449 190.63959551 393.17597129 189.24701595 393.17187595 C185.82705162 393.16004217 182.40717189 393.14355663 178.98725033 393.12304783 C178.99248714 393.99630711 178.99772396 394.86956638 179.00311947 395.76928806 C179.02012784 398.99894055 179.03268402 402.22857028 179.04218197 405.45825291 C179.04722112 406.85800011 179.05405249 408.25774203 179.06268978 409.65747166 C179.07477353 411.6655056 179.07994839 413.6735774 179.08490658 415.68164158 C179.09014339 416.89134617 179.09538021 418.10105076 179.10077572 419.34741306 C178.98725033 422.12304783 178.98725033 422.12304783 177.98725033 423.12304783 C173.87147444 423.34093969 169.7526011 423.30883971 165.63153744 423.30835056 C163.56174769 423.31053517 161.4924924 423.32868274 159.4227972 423.3476572 C158.1253558 423.3495908 156.82791439 423.35152439 155.49115658 423.35351658 C154.29305355 423.35762547 153.09495052 423.36173435 151.86054134 423.36596775 C148.98725033 423.12304783 148.98725033 423.12304783 146.98725033 421.12304783 C146.76019955 418.32568455 146.76019955 418.32568455 146.79193783 414.80273533 C146.8016058 412.91748142 146.8016058 412.91748142 146.81146908 410.99414158 C146.8366058 409.01607517 146.8366058 409.01607517 146.86225033 406.99804783 C146.8722805 405.65821062 146.88140629 404.31836631 146.88959408 402.97851658 C146.91322958 399.6931821 146.94617799 396.40820318 146.98725033 393.12304783 C146.14952084 393.13352146 145.31179134 393.14399509 144.44867611 393.15478611 C141.34386869 393.18884802 138.2391564 393.21393694 135.13422298 393.23291111 C133.12813673 393.2479289 131.12213708 393.27333764 129.11615658 393.29882908 C127.85932064 393.30527439 126.6024847 393.3117197 125.30756283 393.31836033 C124.14498959 393.32883396 122.98241634 393.33930759 121.78461361 393.35009861 C118.98725033 393.12304783 118.98725033 393.12304783 116.98725033 391.12304783 C116.76019955 388.32568455 116.76019955 388.32568455 116.79193783 384.80273533 C116.8016058 382.91748142 116.8016058 382.91748142 116.81146908 380.99414158 C116.8366058 379.01607517 116.8366058 379.01607517 116.86225033 376.99804783 C116.8722805 375.65821062 116.88140629 374.31836631 116.88959408 372.97851658 C116.91322958 369.6931821 116.94617799 366.40820318 116.98725033 363.12304783 C116.14952084 363.13352146 115.31179134 363.14399509 114.44867611 363.15478611 C111.34386869 363.18884802 108.2391564 363.21393694 105.13422298 363.23291111 C103.12813673 363.2479289 101.12213708 363.27333764 99.11615658 363.29882908 C97.85932064 363.30527439 96.6024847 363.3117197 95.30756283 363.31836033 C94.14498959 363.32883396 92.98241634 363.33930759 91.78461361 363.35009861 C88.98725033 363.12304783 88.98725033 363.12304783 86.98725033 361.12304783 C86.76019955 358.23388767 86.76019955 358.23388767 86.79193783 354.58398533 C86.8016058 352.63105564 86.8016058 352.63105564 86.81146908 350.63867283 C86.82818103 349.25846187 86.84511094 347.87825354 86.86225033 346.49804783 C86.87228027 345.11003331 86.8814061 343.72201194 86.88959408 342.33398533 C86.9132317 338.93016757 86.94618166 335.52669277 86.98725033 332.12304783 C85.73065609 332.18419773 85.73065609 332.18419773 84.44867611 332.24658298 C81.34416557 332.39273339 78.23942545 332.52960359 75.13422298 332.6601572 C73.78965467 332.71860258 72.44524235 332.78075859 71.10101986 332.84668064 C69.17031695 332.94072226 67.23893003 333.02037475 65.30756283 333.09961033 C64.14498959 333.15197849 62.98241634 333.20434666 61.78461361 333.25830173 C58.98725033 333.12304783 58.98725033 333.12304783 56.98725033 331.12304783 C56.76019955 328.32568455 56.76019955 328.32568455 56.79193783 324.80273533 C56.79838314 323.54589939 56.80482845 322.28906345 56.81146908 320.99414158 C56.8366058 319.01607517 56.8366058 319.01607517 56.86225033 316.99804783 C56.8722805 315.65821062 56.88140629 314.31836631 56.88959408 312.97851658 C56.91322958 309.6931821 56.94617799 306.40820318 56.98725033 303.12304783 C56.11399105 303.09799168 55.24073177 303.07293552 54.34101009 303.04712009 C51.11122481 302.95217074 47.88160878 302.85292754 44.65204525 302.75073338 C43.25235833 302.70733349 41.85261673 302.66566219 40.4528265 302.62573338 C38.44463538 302.56815338 36.43663883 302.50390783 34.42865658 302.43945408 C33.21895199 302.40279636 32.0092474 302.36613865 30.76288509 302.32837009 C27.98725033 302.12304783 27.98725033 302.12304783 26.98725033 301.12304783 C26.89949428 298.97745956 26.88029814 296.82900362 26.88959408 294.68164158 C26.89442806 292.72387791 26.89442806 292.72387791 26.8993597 290.72656345 C26.90771632 289.33789093 26.91618128 287.94921906 26.92475033 286.56054783 C26.92976367 285.16797127 26.93432686 283.77539301 26.9384222 282.38281345 C26.95025599 278.96284913 26.96674153 275.54296939 26.98725033 272.12304783 C25.67736141 272.13090305 25.67736141 272.13090305 24.34101009 272.13891697 C21.1113576 272.15592534 17.88172788 272.16848152 14.65204525 272.17797947 C13.25229804 272.18301862 11.85255613 272.18984999 10.4528265 272.19848728 C8.44479256 272.21057103 6.43672075 272.2157459 4.42865658 272.22070408 C3.21895199 272.2259409 2.0092474 272.23117771 0.76288509 272.23657322 C-2.01274967 272.12304783 -2.01274967 272.12304783 -3.01274967 271.12304783 C-3.10050572 268.97745956 -3.11970186 266.82900362 -3.11040592 264.68164158 C-3.10790836 263.50658054 -3.1054108 262.33151951 -3.10283756 261.12085056 C-3.09373356 259.61595066 -3.08462955 258.11105076 -3.07524967 256.56054783 C-3.05462467 251.79617283 -3.03399967 247.03179783 -3.01274967 242.12304783 C-12.91274967 242.12304783 -22.81274967 242.12304783 -33.01274967 242.12304783 C-33.01274967 232.22304783 -33.01274967 222.32304783 -33.01274967 212.12304783 C-42.91274967 212.12304783 -52.81274967 212.12304783 -63.01274967 212.12304783 C-63.01274967 161.96304783 -63.01274967 111.80304783 -63.01274967 60.12304783 C-53.11274967 60.12304783 -43.21274967 60.12304783 -33.01274967 60.12304783 C-33.05234594 50.62411819 -33.05234594 50.62411819 -33.10283756 41.12524509 C-33.10533512 39.95018406 -33.10783268 38.77512302 -33.11040592 37.56445408 C-33.11564274 36.35474949 -33.12087955 35.1450449 -33.12627506 33.89868259 C-33.01274967 31.12304783 -33.01274967 31.12304783 -32.01274967 30.12304783 C-29.86716141 30.03529178 -27.71870546 30.01609564 -25.57134342 30.02539158 C-24.26616764 30.02861423 -22.96099186 30.03183689 -21.6162653 30.0351572 C-20.22759277 30.04351382 -18.8389209 30.05197878 -17.45024967 30.06054783 C-16.05767311 30.06556117 -14.66509486 30.07012436 -13.2725153 30.0742197 C-9.85255097 30.08605349 -6.43267123 30.10253903 -3.01274967 30.12304783 C-3.01798649 29.24978855 -3.0232233 28.37652927 -3.02861881 27.47680759 C-3.04562718 24.2471551 -3.05818336 21.01752538 -3.06768131 17.78784275 C-3.07272047 16.38809555 -3.07955184 14.98835363 -3.08818913 13.588624 C-3.10027287 11.58059006 -3.10544774 9.57251825 -3.11040592 7.56445408 C-3.11564274 6.35474949 -3.12087955 5.1450449 -3.12627506 3.89868259 C-2.97425315 0.18182857 -2.97425315 0.18182857 0 0 Z " fill="#CD9EFE" transform="translate(86.01274967193604,47.876952171325684)"/>
<path d="M0 0 C0.89137382 0.00092179 1.78274763 0.00184359 2.70113277 0.00279331 C4.23036373 0.00073132 4.23036373 0.00073132 5.79048824 -0.00137234 C6.91833233 0.00222294 8.04617641 0.00581821 9.20819759 0.00952244 C10.38852566 0.00937641 11.56885372 0.00923038 12.7849493 0.00907993 C16.03067141 0.00965888 19.27635088 0.01468796 22.52206445 0.02165389 C25.91068065 0.02788821 29.29929761 0.02849129 32.68791866 0.0296793 C39.10880837 0.03279238 45.52968114 0.04100546 51.95056337 0.05102879 C59.25878857 0.06219063 66.56701457 0.06770055 73.87524617 0.07272422 C88.91259034 0.0831881 103.94991864 0.1007871 118.98725033 0.12304783 C119.9211632 3.57606513 120.10249678 6.61277223 120.08490658 10.20117283 C120.08240902 11.24692478 120.07991146 12.29267673 120.07733822 13.37011814 C120.06823421 14.69108494 120.05913021 16.01205173 120.04975033 17.37304783 C120.02912533 21.58054783 120.00850033 25.78804783 119.98725033 30.12304783 C129.55725033 30.12304783 139.12725033 30.12304783 148.98725033 30.12304783 C150.37033814 32.88922346 150.09935229 35.13322783 150.08490658 38.22461033 C150.08240902 39.31596287 150.07991146 40.40731541 150.07733822 41.53173923 C150.06823421 42.92312107 150.05913021 44.31450291 150.04975033 45.74804783 C150.02912533 50.16179783 150.00850033 54.57554783 149.98725033 59.12304783 C158.89725033 59.12304783 167.80725033 59.12304783 176.98725033 59.12304783 C176.94768953 50.32736278 176.94768953 50.32736278 176.89716244 41.53173923 C176.8934161 39.89471043 176.8934161 39.89471043 176.88959408 38.22461033 C176.88435726 37.10393162 176.87912045 35.98325291 176.87372494 34.82861423 C176.98725033 32.12304783 176.98725033 32.12304783 177.98725033 30.12304783 C187.88725033 30.12304783 197.78725033 30.12304783 207.98725033 30.12304783 C207.98725033 20.22304783 207.98725033 10.32304783 207.98725033 0.12304783 C223.74642097 0.10050054 239.5055789 0.0820685 255.26476097 0.07123566 C262.58152435 0.06607277 269.89827702 0.0590302 277.21503353 0.04760838 C283.59008051 0.03766132 289.96511973 0.03119435 296.34017426 0.02895933 C299.71773047 0.02765226 303.09526449 0.02456664 306.47281361 0.01731777 C310.23732376 0.0101117 314.00178718 0.0090567 317.76630306 0.00952244 C318.89414715 0.00592716 320.02199123 0.00233189 321.18401241 -0.00137234 C322.71324337 0.00068966 322.71324337 0.00068966 324.27336788 0.00279331 C325.1647417 0.00187152 326.05611551 0.00094973 326.97450066 0 C328.98725033 0.12304783 328.98725033 0.12304783 329.98725033 1.12304783 C330.07500638 3.2686361 330.09420252 5.41709204 330.08490658 7.56445408 C330.08168392 8.86962986 330.07846127 10.17480564 330.07514095 11.5195322 C330.06678434 12.90820473 330.05831938 14.2968766 330.04975033 15.68554783 C330.04473699 17.07812439 330.04017379 18.47070264 330.03607845 19.8632822 C330.02424467 23.28324653 330.00775913 26.70312627 329.98725033 30.12304783 C331.29713924 30.1151926 331.29713924 30.1151926 332.63349056 30.10717869 C335.86314305 30.09017032 339.09277278 30.07761414 342.32245541 30.06811619 C343.72220261 30.06307703 345.12194453 30.05624566 346.52167416 30.04760838 C348.52970809 30.03552463 350.5377799 30.03034976 352.54584408 30.02539158 C354.36040096 30.01753635 354.36040096 30.01753635 356.21161556 30.00952244 C358.98725033 30.12304783 358.98725033 30.12304783 359.98725033 31.12304783 C360.07500638 33.2686361 360.09420252 35.41709204 360.08490658 37.56445408 C360.08168392 38.86962986 360.07846127 40.17480564 360.07514095 41.5195322 C360.06678434 42.90820473 360.05831938 44.2968766 360.04975033 45.68554783 C360.04473699 47.07812439 360.04017379 48.47070264 360.03607845 49.8632822 C360.02424467 53.28324653 360.00775913 56.70312627 359.98725033 60.12304783 C361.29713924 60.1151926 361.29713924 60.1151926 362.63349056 60.10717869 C365.86314305 60.09017032 369.09277278 60.07761414 372.32245541 60.06811619 C373.72220261 60.06307703 375.12194453 60.05624566 376.52167416 60.04760838 C378.52970809 60.03552463 380.5377799 60.03034976 382.54584408 60.02539158 C384.36040096 60.01753635 384.36040096 60.01753635 386.21161556 60.00952244 C388.98725033 60.12304783 388.98725033 60.12304783 389.98725033 61.12304783 C390.0860678 63.05702272 390.1135726 64.9946556 390.11423397 66.9311533 C390.11705379 68.19320591 390.11987362 69.45525852 390.12277889 70.75555515 C390.1208343 72.16711535 390.11878611 73.57867541 390.11664486 74.99023533 C390.11799885 76.46657447 390.11977877 77.94291328 390.12195492 79.41925144 C390.12652952 83.43980067 390.12473958 87.46032436 390.12157583 91.48087406 C390.11905237 95.67914495 390.12138973 99.87741358 390.122962 104.07568455 C390.12478373 111.12728361 390.12237728 118.17887222 390.11762142 125.2304697 C390.11217879 133.39487833 390.11394145 141.55926199 390.11944783 149.72367001 C390.12397885 156.72067765 390.12462956 163.71767776 390.12200916 170.71468639 C390.12044632 174.8992933 390.1202528 179.08388845 390.12354565 183.26849461 C390.1264242 187.20168069 390.12444897 191.13483443 390.11865139 195.06801701 C390.1173237 196.51567373 390.11771805 197.96333314 390.11991405 199.41098881 C390.12262519 201.37897237 390.11863106 203.34696184 390.11423397 205.31494236 C390.11385695 206.41887333 390.11347992 207.5228043 390.11309147 208.66018772 C389.98725033 211.12304783 389.98725033 211.12304783 388.98725033 212.12304783 C386.84166206 212.21080388 384.69320612 212.23000002 382.54584408 212.22070408 C381.2406683 212.21748142 379.93549252 212.21425877 378.59076595 212.21093845 C377.20209343 212.20258184 375.81342156 212.19411688 374.42475033 212.18554783 C373.03217377 212.18053449 371.63959551 212.17597129 370.24701595 212.17187595 C366.82705162 212.16004217 363.40717189 212.14355663 359.98725033 212.12304783 C359.99510555 213.43293674 359.99510555 213.43293674 360.00311947 214.76928806 C360.02012784 217.99894055 360.03268402 221.22857028 360.04218197 224.45825291 C360.04722112 225.85800011 360.05405249 227.25774203 360.06268978 228.65747166 C360.07477353 230.6655056 360.07994839 232.6735774 360.08490658 234.68164158 C360.0927618 236.49619846 360.0927618 236.49619846 360.10077572 238.34741306 C359.98725033 241.12304783 359.98725033 241.12304783 358.98725033 242.12304783 C356.84166206 242.21080388 354.69320612 242.23000002 352.54584408 242.22070408 C351.2406683 242.21748142 349.93549252 242.21425877 348.59076595 242.21093845 C347.20209343 242.20258184 345.81342156 242.19411688 344.42475033 242.18554783 C343.03217377 242.18053449 341.63959551 242.17597129 340.24701595 242.17187595 C336.82705162 242.16004217 333.40717189 242.14355663 329.98725033 242.12304783 C329.99510555 243.43293674 329.99510555 243.43293674 330.00311947 244.76928806 C330.02012784 247.99894055 330.03268402 251.22857028 330.04218197 254.45825291 C330.04722112 255.85800011 330.05405249 257.25774203 330.06268978 258.65747166 C330.07477353 260.6655056 330.07994839 262.6735774 330.08490658 264.68164158 C330.0927618 266.49619846 330.0927618 266.49619846 330.10077572 268.34741306 C329.98725033 271.12304783 329.98725033 271.12304783 328.98725033 272.12304783 C326.84166206 272.21080388 324.69320612 272.23000002 322.54584408 272.22070408 C321.2406683 272.21748142 319.93549252 272.21425877 318.59076595 272.21093845 C317.20209343 272.20258184 315.81342156 272.19411688 314.42475033 272.18554783 C313.03217377 272.18053449 311.63959551 272.17597129 310.24701595 272.17187595 C306.82705162 272.16004217 303.40717189 272.14355663 299.98725033 272.12304783 C299.99510555 273.43293674 299.99510555 273.43293674 300.00311947 274.76928806 C300.02012784 277.99894055 300.03268402 281.22857028 300.04218197 284.45825291 C300.04722112 285.85800011 300.05405249 287.25774203 300.06268978 288.65747166 C300.07477353 290.6655056 300.07994839 292.6735774 300.08490658 294.68164158 C300.0927618 296.49619846 300.0927618 296.49619846 300.10077572 298.34741306 C299.98725033 301.12304783 299.98725033 301.12304783 298.98725033 302.12304783 C296.84166206 302.21080388 294.69320612 302.23000002 292.54584408 302.22070408 C291.2406683 302.21748142 289.93549252 302.21425877 288.59076595 302.21093845 C287.20209343 302.20258184 285.81342156 302.19411688 284.42475033 302.18554783 C283.03217377 302.18053449 281.63959551 302.17597129 280.24701595 302.17187595 C276.82705162 302.16004217 273.40717189 302.14355663 269.98725033 302.12304783 C269.99510555 303.43293674 269.99510555 303.43293674 270.00311947 304.76928806 C270.02012784 307.99894055 270.03268402 311.22857028 270.04218197 314.45825291 C270.04722112 315.85800011 270.05405249 317.25774203 270.06268978 318.65747166 C270.07477353 320.6655056 270.07994839 322.6735774 270.08490658 324.68164158 C270.0927618 326.49619846 270.0927618 326.49619846 270.10077572 328.34741306 C269.98725033 331.12304783 269.98725033 331.12304783 268.98725033 332.12304783 C266.84166206 332.21080388 264.69320612 332.23000002 262.54584408 332.22070408 C261.2406683 332.21748142 259.93549252 332.21425877 258.59076595 332.21093845 C257.20209343 332.20258184 255.81342156 332.19411688 254.42475033 332.18554783 C253.03217377 332.18053449 251.63959551 332.17597129 250.24701595 332.17187595 C246.82705162 332.16004217 243.40717189 332.14355663 239.98725033 332.12304783 C239.99772396 332.99107029 240.00819759 333.85909275 240.01898861 334.75341892 C240.05304749 337.97004311 240.078138 341.1865755 240.09711361 344.40332127 C240.1071791 345.79625564 240.12083267 347.18916885 240.13812923 348.5820322 C240.16235253 350.58259142 240.17265846 352.58330398 240.18256283 354.58398533 C240.19303646 355.7884531 240.20351009 356.99292088 240.21430111 358.23388767 C239.98725033 361.12304783 239.98725033 361.12304783 237.98725033 363.12304783 C235.18988705 363.35009861 235.18988705 363.35009861 231.66693783 363.31836033 C230.41010189 363.31191502 229.15326595 363.3054697 227.85834408 363.29882908 C226.53963314 363.28207127 225.2209222 363.26531345 223.86225033 363.24804783 C222.52241312 363.23801765 221.18256881 363.22889187 219.84271908 363.22070408 C216.5573846 363.19706858 213.27240568 363.16412017 209.98725033 363.12304783 C209.99232601 364.03723484 209.9974017 364.95142185 210.00263119 365.8933115 C210.02370196 372.42826138 209.99727132 378.91551118 209.54975033 385.43554783 C209.46853939 386.68980564 209.38732845 387.94406345 209.30365658 389.23632908 C208.98725033 392.12304783 208.98725033 392.12304783 207.98725033 393.12304783 C205.84166206 393.21080388 203.69320612 393.23000002 201.54584408 393.22070408 C200.2406683 393.21748142 198.93549252 393.21425877 197.59076595 393.21093845 C196.20209343 393.20258184 194.81342156 393.19411688 193.42475033 393.18554783 C192.03217377 393.18053449 190.63959551 393.17597129 189.24701595 393.17187595 C185.82705162 393.16004217 182.40717189 393.14355663 178.98725033 393.12304783 C178.99248714 393.99630711 178.99772396 394.86956638 179.00311947 395.76928806 C179.02012784 398.99894055 179.03268402 402.22857028 179.04218197 405.45825291 C179.04722112 406.85800011 179.05405249 408.25774203 179.06268978 409.65747166 C179.07477353 411.6655056 179.07994839 413.6735774 179.08490658 415.68164158 C179.09014339 416.89134617 179.09538021 418.10105076 179.10077572 419.34741306 C178.98725033 422.12304783 178.98725033 422.12304783 177.98725033 423.12304783 C173.87147444 423.34093969 169.7526011 423.30883971 165.63153744 423.30835056 C163.56174769 423.31053517 161.4924924 423.32868274 159.4227972 423.3476572 C158.1253558 423.3495908 156.82791439 423.35152439 155.49115658 423.35351658 C154.29305355 423.35762547 153.09495052 423.36173435 151.86054134 423.36596775 C148.98725033 423.12304783 148.98725033 423.12304783 146.98725033 421.12304783 C146.76019955 418.32568455 146.76019955 418.32568455 146.79193783 414.80273533 C146.8016058 412.91748142 146.8016058 412.91748142 146.81146908 410.99414158 C146.8366058 409.01607517 146.8366058 409.01607517 146.86225033 406.99804783 C146.8722805 405.65821062 146.88140629 404.31836631 146.88959408 402.97851658 C146.91322958 399.6931821 146.94617799 396.40820318 146.98725033 393.12304783 C146.14952084 393.13352146 145.31179134 393.14399509 144.44867611 393.15478611 C141.34386869 393.18884802 138.2391564 393.21393694 135.13422298 393.23291111 C133.12813673 393.2479289 131.12213708 393.27333764 129.11615658 393.29882908 C127.85932064 393.30527439 126.6024847 393.3117197 125.30756283 393.31836033 C124.14498959 393.32883396 122.98241634 393.33930759 121.78461361 393.35009861 C118.98725033 393.12304783 118.98725033 393.12304783 116.98725033 391.12304783 C116.76019955 388.32568455 116.76019955 388.32568455 116.79193783 384.80273533 C116.8016058 382.91748142 116.8016058 382.91748142 116.81146908 380.99414158 C116.8366058 379.01607517 116.8366058 379.01607517 116.86225033 376.99804783 C116.8722805 375.65821062 116.88140629 374.31836631 116.88959408 372.97851658 C116.91322958 369.6931821 116.94617799 366.40820318 116.98725033 363.12304783 C116.14952084 363.13352146 115.31179134 363.14399509 114.44867611 363.15478611 C111.34386869 363.18884802 108.2391564 363.21393694 105.13422298 363.23291111 C103.12813673 363.2479289 101.12213708 363.27333764 99.11615658 363.29882908 C97.85932064 363.30527439 96.6024847 363.3117197 95.30756283 363.31836033 C94.14498959 363.32883396 92.98241634 363.33930759 91.78461361 363.35009861 C88.98725033 363.12304783 88.98725033 363.12304783 86.98725033 361.12304783 C86.76019955 358.23388767 86.76019955 358.23388767 86.79193783 354.58398533 C86.8016058 352.63105564 86.8016058 352.63105564 86.81146908 350.63867283 C86.82818103 349.25846187 86.84511094 347.87825354 86.86225033 346.49804783 C86.87228027 345.11003331 86.8814061 343.72201194 86.88959408 342.33398533 C86.9132317 338.93016757 86.94618166 335.52669277 86.98725033 332.12304783 C85.73065609 332.18419773 85.73065609 332.18419773 84.44867611 332.24658298 C81.34416557 332.39273339 78.23942545 332.52960359 75.13422298 332.6601572 C73.78965467 332.71860258 72.44524235 332.78075859 71.10101986 332.84668064 C69.17031695 332.94072226 67.23893003 333.02037475 65.30756283 333.09961033 C64.14498959 333.15197849 62.98241634 333.20434666 61.78461361 333.25830173 C58.98725033 333.12304783 58.98725033 333.12304783 56.98725033 331.12304783 C56.76019955 328.32568455 56.76019955 328.32568455 56.79193783 324.80273533 C56.79838314 323.54589939 56.80482845 322.28906345 56.81146908 320.99414158 C56.8366058 319.01607517 56.8366058 319.01607517 56.86225033 316.99804783 C56.8722805 315.65821062 56.88140629 314.31836631 56.88959408 312.97851658 C56.91322958 309.6931821 56.94617799 306.40820318 56.98725033 303.12304783 C56.11399105 303.09799168 55.24073177 303.07293552 54.34101009 303.04712009 C51.11122481 302.95217074 47.88160878 302.85292754 44.65204525 302.75073338 C43.25235833 302.70733349 41.85261673 302.66566219 40.4528265 302.62573338 C38.44463538 302.56815338 36.43663883 302.50390783 34.42865658 302.43945408 C33.21895199 302.40279636 32.0092474 302.36613865 30.76288509 302.32837009 C27.98725033 302.12304783 27.98725033 302.12304783 26.98725033 301.12304783 C26.89949428 298.97745956 26.88029814 296.82900362 26.88959408 294.68164158 C26.89442806 292.72387791 26.89442806 292.72387791 26.8993597 290.72656345 C26.90771632 289.33789093 26.91618128 287.94921906 26.92475033 286.56054783 C26.92976367 285.16797127 26.93432686 283.77539301 26.9384222 282.38281345 C26.95025599 278.96284913 26.96674153 275.54296939 26.98725033 272.12304783 C25.67736141 272.13090305 25.67736141 272.13090305 24.34101009 272.13891697 C21.1113576 272.15592534 17.88172788 272.16848152 14.65204525 272.17797947 C13.25229804 272.18301862 11.85255613 272.18984999 10.4528265 272.19848728 C8.44479256 272.21057103 6.43672075 272.2157459 4.42865658 272.22070408 C3.21895199 272.2259409 2.0092474 272.23117771 0.76288509 272.23657322 C-2.01274967 272.12304783 -2.01274967 272.12304783 -3.01274967 271.12304783 C-3.10050572 268.97745956 -3.11970186 266.82900362 -3.11040592 264.68164158 C-3.10790836 263.50658054 -3.1054108 262.33151951 -3.10283756 261.12085056 C-3.09373356 259.61595066 -3.08462955 258.11105076 -3.07524967 256.56054783 C-3.05462467 251.79617283 -3.03399967 247.03179783 -3.01274967 242.12304783 C-12.91274967 242.12304783 -22.81274967 242.12304783 -33.01274967 242.12304783 C-33.01274967 232.22304783 -33.01274967 222.32304783 -33.01274967 212.12304783 C-42.91274967 212.12304783 -52.81274967 212.12304783 -63.01274967 212.12304783 C-63.01274967 161.96304783 -63.01274967 111.80304783 -63.01274967 60.12304783 C-53.11274967 60.12304783 -43.21274967 60.12304783 -33.01274967 60.12304783 C-33.05234594 50.62411819 -33.05234594 50.62411819 -33.10283756 41.12524509 C-33.10533512 39.95018406 -33.10783268 38.77512302 -33.11040592 37.56445408 C-33.11564274 36.35474949 -33.12087955 35.1450449 -33.12627506 33.89868259 C-33.01274967 31.12304783 -33.01274967 31.12304783 -32.01274967 30.12304783 C-29.86716141 30.03529178 -27.71870546 30.01609564 -25.57134342 30.02539158 C-24.26616764 30.02861423 -22.96099186 30.03183689 -21.6162653 30.0351572 C-20.22759277 30.04351382 -18.8389209 30.05197878 -17.45024967 30.06054783 C-16.05767311 30.06556117 -14.66509486 30.07012436 -13.2725153 30.0742197 C-9.85255097 30.08605349 -6.43267123 30.10253903 -3.01274967 30.12304783 C-3.01798649 29.24978855 -3.0232233 28.37652927 -3.02861881 27.47680759 C-3.04562718 24.2471551 -3.05818336 21.01752538 -3.06768131 17.78784275 C-3.07272047 16.38809555 -3.07955184 14.98835363 -3.08818913 13.588624 C-3.10027287 11.58059006 -3.10544774 9.57251825 -3.11040592 7.56445408 C-3.11564274 6.35474949 -3.12087955 5.1450449 -3.12627506 3.89868259 C-2.97425315 0.18182857 -2.97425315 0.18182857 0 0 Z M-2.01274967 31.12304783 C-2.01274967 41.02304783 -2.01274967 50.92304783 -2.01274967 61.12304783 C-11.91274967 61.12304783 -21.81274967 61.12304783 -32.01274967 61.12304783 C-32.01274967 110.62304783 -32.01274967 160.12304783 -32.01274967 211.12304783 C-22.11274967 211.12304783 -12.21274967 211.12304783 -2.01274967 211.12304783 C-2.01274967 221.02304783 -2.01274967 230.92304783 -2.01274967 241.12304783 C7.88725033 241.12304783 17.78725033 241.12304783 27.98725033 241.12304783 C27.98725033 251.02304783 27.98725033 260.92304783 27.98725033 271.12304783 C37.88725033 271.12304783 47.78725033 271.12304783 57.98725033 271.12304783 C57.98725033 281.02304783 57.98725033 290.92304783 57.98725033 301.12304783 C67.88725033 301.12304783 77.78725033 301.12304783 87.98725033 301.12304783 C87.98725033 311.35304783 87.98725033 321.58304783 87.98725033 332.12304783 C97.88725033 332.12304783 107.78725033 332.12304783 117.98725033 332.12304783 C117.98725033 341.69304783 117.98725033 351.26304783 117.98725033 361.12304783 C120.80549225 362.53216879 123.15976315 362.23488336 126.30756283 362.22070408 C128.19281673 362.21587009 128.19281673 362.21587009 130.11615658 362.21093845 C131.43486752 362.20255955 132.75357845 362.19418064 134.11225033 362.18554783 C135.45209244 362.18053272 136.79193633 362.17596983 138.13178158 362.17187595 C141.41698239 362.16005868 144.7020943 362.143584 147.98725033 362.12304783 C147.98201351 362.99630711 147.9767767 363.86956638 147.97138119 364.76928806 C147.95437282 367.99894055 147.94181664 371.22857028 147.93231869 374.45825291 C147.92727953 375.85800011 147.92044816 377.25774203 147.91181087 378.65747166 C147.89972713 380.6655056 147.89455226 382.6735774 147.88959408 384.68164158 C147.88435726 385.89134617 147.87912045 387.10105076 147.87372494 388.34741306 C147.66949747 391.031168 147.66949747 391.031168 148.98725033 392.12304783 C151.12078206 392.22308072 153.25762574 392.2538583 155.39350033 392.25586033 C157.34449642 392.25779392 157.34449642 392.25779392 159.33490658 392.25976658 C160.01569271 392.25767185 160.69647884 392.25557713 161.39789486 392.25341892 C163.47853548 392.24807023 165.55896022 392.25336463 167.63959408 392.25976658 C168.94025814 392.25847752 170.2409222 392.25718845 171.58100033 392.25586033 C172.78434017 392.2547324 173.98768002 392.25360447 175.2274847 392.25244236 C177.89709515 392.4376076 177.89709515 392.4376076 178.98725033 391.12304783 C179.07500638 388.97745956 179.09420252 386.82900362 179.08490658 384.68164158 C179.08116024 382.91905003 179.08116024 382.91905003 179.07733822 381.12085056 C179.06823421 379.61595066 179.05913021 378.11105076 179.04975033 376.56054783 C179.01881283 369.41398533 179.01881283 369.41398533 178.98725033 362.12304783 C188.88725033 362.12304783 198.78725033 362.12304783 208.98725033 362.12304783 C208.98725033 352.22304783 208.98725033 342.32304783 208.98725033 332.12304783 C223.42475033 332.18554783 223.42475033 332.18554783 227.98505306 332.21313572 C229.1601141 332.21563328 230.33517513 332.21813084 231.54584408 332.22070408 C232.75554867 332.2259409 233.96525326 332.23117771 235.21161556 332.23657322 C237.8953705 332.44080068 237.8953705 332.44080068 238.98725033 331.12304783 C239.07500638 328.97745956 239.09420252 326.82900362 239.08490658 324.68164158 C239.08007259 322.72387791 239.08007259 322.72387791 239.07514095 320.72656345 C239.06678434 319.33789093 239.05831938 317.94921906 239.04975033 316.56054783 C239.04473699 315.16797127 239.04017379 313.77539301 239.03607845 312.38281345 C239.02424467 308.96284913 239.00775913 305.54296939 238.98725033 302.12304783 C239.74417171 302.12828465 240.5010931 302.13352146 241.2809515 302.13891697 C260.22197553 302.25134772 279.05675998 301.87277022 297.98725033 301.12304783 C297.98725033 291.22304783 297.98725033 281.32304783 297.98725033 271.12304783 C307.88725033 271.12304783 317.78725033 271.12304783 327.98725033 271.12304783 C328.31725033 260.89304783 328.64725033 250.66304783 328.98725033 240.12304783 C338.55725033 240.12304783 348.12725033 240.12304783 357.98725033 240.12304783 C358.82290788 219.35883706 359.12642951 198.66958926 359.08864427 177.89325976 C359.08225701 173.76675805 359.0817951 169.64025502 359.08061886 165.51374912 C359.07754972 157.75152789 359.06939799 149.98932128 359.05926937 142.22710639 C359.04796835 133.36807968 359.04256308 124.50905216 359.03757393 115.65002 C359.02720995 97.47435272 359.00892175 79.29870539 358.98725033 61.12304783 C349.08725033 61.12304783 339.18725033 61.12304783 328.98725033 61.12304783 C329.04975033 46.68554783 329.04975033 46.68554783 329.07733822 42.12524509 C329.07983578 40.95018406 329.08233334 39.77512302 329.08490658 38.56445408 C329.09014339 37.35474949 329.09538021 36.1450449 329.10077572 34.89868259 C329.30500318 32.21492766 329.30500318 32.21492766 327.98725033 31.12304783 C326.44371902 31.02719784 324.89579924 31.00116713 323.34929562 31.00279331 C322.34663662 31.00141865 321.34397762 31.00004398 320.31093502 30.99862766 C318.64722111 31.00402058 318.64722111 31.00402058 316.94989681 31.00952244 C315.20866543 31.0093034 315.20866543 31.0093034 313.43225765 31.00907993 C309.57426781 31.00977966 305.71632554 31.01757485 301.85834408 31.02539158 C299.19176304 31.02725555 296.52518469 31.02872871 293.85860348 31.0296793 C287.54396153 31.03279235 281.22933682 31.04100539 274.91470248 31.05102879 C267.727394 31.06219073 260.54008471 31.06770058 253.35276973 31.07272422 C238.56425323 31.08318802 223.77575525 31.10153318 208.98725033 31.12304783 C208.98725033 41.02304783 208.98725033 50.92304783 208.98725033 61.12304783 C199.08725033 61.12304783 189.18725033 61.12304783 178.98725033 61.12304783 C178.65725033 80.59304783 178.32725033 100.06304783 177.98725033 120.12304783 C168.08725033 120.45304783 158.18725033 120.78304783 147.98725033 121.12304783 C147.98725033 101.32304783 147.98725033 81.52304783 147.98725033 61.12304783 C138.08725033 61.12304783 128.18725033 61.12304783 117.98725033 61.12304783 C117.98725033 51.22304783 117.98725033 41.32304783 117.98725033 31.12304783 C78.38725033 31.12304783 38.78725033 31.12304783 -2.01274967 31.12304783 Z " fill="#A35FF7" transform="translate(86.01274967193604,47.876952171325684)"/>
<path d="M0 0 C39.93 0 79.86 0 121 0 C121.91211501 3.64846005 122.11589698 6.35701531 122.09765625 10.078125 C122.09515869 11.12387695 122.09266113 12.16962891 122.09008789 13.24707031 C122.08098389 14.56803711 122.07187988 15.88900391 122.0625 17.25 C122.041875 21.4575 122.02125 25.665 122 30 C131.57 30 141.14 30 151 30 C152.38308781 32.76617563 152.11210196 35.01018 152.09765625 38.1015625 C152.09515869 39.19291504 152.09266113 40.28426758 152.09008789 41.40869141 C152.08098389 42.80007324 152.07187988 44.19145508 152.0625 45.625 C152.041875 50.03875 152.02125 54.4525 152 59 C160.91 59 169.82 59 179 59 C178.9604392 50.20431495 178.9604392 50.20431495 178.90991211 41.40869141 C178.90616577 39.7716626 178.90616577 39.7716626 178.90234375 38.1015625 C178.89710693 36.98088379 178.89187012 35.86020508 178.88647461 34.70556641 C179 32 179 32 180 30 C190.56 30 201.12 30 212 30 C212 20.76 212 11.52 212 2 C250.61 2 289.22 2 329 2 C329 10.91 329 19.82 329 29 C331.84535725 30.42267862 334.36218552 30.21971869 337.5390625 30.31640625 C338.71162598 30.35451416 339.88418945 30.39262207 341.09228516 30.43188477 C343.335979 30.49653931 343.335979 30.49653931 345.625 30.5625 C352.740625 30.7790625 352.740625 30.7790625 360 31 C360 40.9 360 50.8 360 61 C350.43 61 340.86 61 331 61 C330.67 51.43 330.34 41.86 330 32 C290.73 31.67 251.46 31.34 211 31 C211 40.9 211 50.8 211 61 C201.1 61 191.2 61 181 61 C181.01160156 65.24746094 181.02320313 69.49492188 181.03515625 73.87109375 C181.04158318 77.24907146 181.04700741 80.62704744 181.05175018 84.00502777 C181.0570399 87.57571125 181.06411339 91.14637115 181.07543945 94.71704102 C181.08834176 98.81006097 181.09322906 102.9030558 181.09765625 106.99609375 C181.10281754 108.28148544 181.10797882 109.56687714 181.11329651 110.89122009 C181.11337204 112.07236893 181.11344757 113.25351776 181.11352539 114.47045898 C181.115746 115.51636703 181.11796661 116.56227509 181.12025452 117.63987732 C181 120 181 120 180 121 C170.1 121 160.2 121 150 121 C150 101.2 150 81.4 150 61 C140.1 61 130.2 61 120 61 C120 51.1 120 41.2 120 31 C80.4 31 40.8 31 0 31 C0 20.77 0 10.54 0 0 Z " fill="#A15DF7" transform="translate(84,48)"/>
<path d="M0 0 C9.9 0 19.8 0 30 0 C30 9.9 30 19.8 30 30 C39.9 30 49.8 30 60 30 C60 39.9 60 49.8 60 60 C50.1 60 40.2 60 30 60 C30 69.9 30 79.8 30 90 C20.1 90 10.2 90 0 90 C0 80.1 0 70.2 0 60 C-9.9 60 -19.8 60 -30 60 C-30 50.1 -30 40.2 -30 30 C-20.1 30 -10.2 30 0 30 C0 20.1 0 10.2 0 0 Z " fill="#FEFCFE" transform="translate(355,109)"/>
<path d="M0 0 C9.9 0 19.8 0 30 0 C30 49.5 30 99 30 150 C20.1 150 10.2 150 0 150 C0 100.5 0 51 0 0 Z " fill="#A35FFA" transform="translate(24,109)"/>
<path d="M0 0 C9.9 0 19.8 0 30 0 C30 9.9 30 19.8 30 30 C39.9 30 49.8 30 60 30 C60 39.9 60 49.8 60 60 C49.77 60 39.54 60 29 60 C29 69.9 29 79.8 29 90 C19.43 90 9.86 90 0 90 C0 80.1 0 70.2 0 60 C-9.9 60 -19.8 60 -30 60 C-30 50.1 -30 40.2 -30 30 C-20.1 30 -10.2 30 0 30 C0 20.1 0 10.2 0 0 Z " fill="#FEFDFE" transform="translate(295,199)"/>
<path d="M0 0 C9.57 0.33 19.14 0.66 29 1 C29 49.84 29 98.68 29 149 C19.43 149.33 9.86 149.66 0 150 C0 100.5 0 51 0 0 Z " fill="#A45FFC" transform="translate(445,109)"/>
<path d="M0 0 C15.75917064 -0.02254729 31.51832858 -0.04097933 47.27751064 -0.05181217 C54.59427402 -0.05697506 61.9110267 -0.06401762 69.2277832 -0.07543945 C75.60283018 -0.08538651 81.97786941 -0.09185348 88.35292393 -0.09408849 C91.73048014 -0.09539557 95.10801416 -0.09848119 98.48556328 -0.10573006 C102.25007343 -0.11293613 106.01453685 -0.11399113 109.77905273 -0.11352539 C110.90689682 -0.11712067 112.03474091 -0.12071594 113.19676208 -0.12442017 C114.72599304 -0.12235817 114.72599304 -0.12235817 116.28611755 -0.12025452 C117.17749137 -0.12117631 118.06886518 -0.1220981 118.98725033 -0.12304783 C121 0 121 0 122 1 C122.08775605 3.14558827 122.10695219 5.29404421 122.09765625 7.44140625 C122.09443359 8.74658203 122.09121094 10.05175781 122.08789062 11.39648438 C122.07953401 12.7851569 122.07106905 14.17382877 122.0625 15.5625 C122.05748666 16.95507656 122.05292347 18.34765481 122.04882812 19.74023438 C122.03699434 23.1601987 122.0205088 26.58007844 122 30 C123.30988892 29.99214478 123.30988892 29.99214478 124.64624023 29.98413086 C127.87589273 29.96712249 131.10552245 29.95456631 134.33520508 29.94506836 C135.73495228 29.9400292 137.1346942 29.93319784 138.53442383 29.92456055 C140.54245777 29.9124768 142.55052957 29.90730193 144.55859375 29.90234375 C146.37315063 29.89448853 146.37315063 29.89448853 148.22436523 29.88647461 C151 30 151 30 152 31 C152.08775605 33.14558827 152.10695219 35.29404421 152.09765625 37.44140625 C152.09443359 38.74658203 152.09121094 40.05175781 152.08789062 41.39648438 C152.07953401 42.7851569 152.07106905 44.17382877 152.0625 45.5625 C152.05748666 46.95507656 152.05292347 48.34765481 152.04882812 49.74023438 C152.03699434 53.1601987 152.0205088 56.58007844 152 60 C152.87325928 59.99476318 153.74651855 59.98952637 154.64624023 59.98413086 C157.87589273 59.96712249 161.10552245 59.95456631 164.33520508 59.94506836 C165.73495228 59.9400292 167.1346942 59.93319784 168.53442383 59.92456055 C170.54245777 59.9124768 172.55052957 59.90730193 174.55859375 59.90234375 C176.37315063 59.89448853 176.37315063 59.89448853 178.22436523 59.88647461 C181 60 181 60 182 61 C182.09881747 62.93397489 182.12632227 64.87160777 182.12698364 66.80810547 C182.12980347 68.07015808 182.13262329 69.33221069 182.13552856 70.63250732 C182.13358397 72.04406752 182.13153578 73.45562758 182.12939453 74.8671875 C182.13074852 76.34352664 182.13252844 77.81986545 182.13470459 79.29620361 C182.13927919 83.31675284 182.13748926 87.33727653 182.1343255 91.35782623 C182.13180204 95.55609712 182.1341394 99.75436575 182.13571167 103.95263672 C182.13753341 111.00423579 182.13512695 118.05582439 182.13037109 125.10742188 C182.12492847 133.2718305 182.12669112 141.43621416 182.1321975 149.60062218 C182.13672852 156.59762982 182.13737923 163.59462993 182.13475883 170.59163857 C182.13319599 174.77624547 182.13300247 178.96084062 182.13629532 183.14544678 C182.13917387 187.07863286 182.13719864 191.01178661 182.13140106 194.94496918 C182.13007338 196.3926259 182.13046772 197.84028532 182.13266373 199.28794098 C182.13537487 201.25592454 182.13138073 203.22391402 182.12698364 205.19189453 C182.1264181 206.84779099 182.1264181 206.84779099 182.12584114 208.53713989 C182 211 182 211 181 212 C178.85441173 212.08775605 176.70595579 212.10695219 174.55859375 212.09765625 C173.25341797 212.09443359 171.94824219 212.09121094 170.60351562 212.08789062 C169.2148431 212.07953401 167.82617123 212.07106905 166.4375 212.0625 C165.04492344 212.05748666 163.65234519 212.05292347 162.25976562 212.04882812 C158.8398013 212.03699434 155.41992156 212.0205088 152 212 C152.00523682 212.87325928 152.01047363 213.74651855 152.01586914 214.64624023 C152.03287751 217.87589273 152.04543369 221.10552245 152.05493164 224.33520508 C152.0599708 225.73495228 152.06680216 227.1346942 152.07543945 228.53442383 C152.0875232 230.54245777 152.09269807 232.55052957 152.09765625 234.55859375 C152.10289307 235.76829834 152.10812988 236.97800293 152.11352539 238.22436523 C152 241 152 241 151 242 C148.85441173 242.08775605 146.70595579 242.10695219 144.55859375 242.09765625 C143.25341797 242.09443359 141.94824219 242.09121094 140.60351562 242.08789062 C139.2148431 242.07953401 137.82617123 242.07106905 136.4375 242.0625 C135.04492344 242.05748666 133.65234519 242.05292347 132.25976562 242.04882812 C128.8398013 242.03699434 125.41992156 242.0205088 122 242 C122.00523682 242.87325928 122.01047363 243.74651855 122.01586914 244.64624023 C122.03287751 247.87589273 122.04543369 251.10552245 122.05493164 254.33520508 C122.0599708 255.73495228 122.06680216 257.1346942 122.07543945 258.53442383 C122.0875232 260.54245777 122.09269807 262.55052957 122.09765625 264.55859375 C122.10289307 265.76829834 122.10812988 266.97800293 122.11352539 268.22436523 C122 271 122 271 121 272 C118.85441173 272.08775605 116.70595579 272.10695219 114.55859375 272.09765625 C113.25341797 272.09443359 111.94824219 272.09121094 110.60351562 272.08789062 C109.2148431 272.07953401 107.82617123 272.07106905 106.4375 272.0625 C105.04492344 272.05748666 103.65234519 272.05292347 102.25976562 272.04882812 C98.8398013 272.03699434 95.41992156 272.0205088 92 272 C92.00523682 272.87325928 92.01047363 273.74651855 92.01586914 274.64624023 C92.03287751 277.87589273 92.04543369 281.10552245 92.05493164 284.33520508 C92.0599708 285.73495228 92.06680216 287.1346942 92.07543945 288.53442383 C92.0875232 290.54245777 92.09269807 292.55052957 92.09765625 294.55859375 C92.10289307 295.76829834 92.10812988 296.97800293 92.11352539 298.22436523 C92 301 92 301 91 302 C88.85441173 302.08775605 86.70595579 302.10695219 84.55859375 302.09765625 C83.25341797 302.09443359 81.94824219 302.09121094 80.60351562 302.08789062 C79.2148431 302.07953401 77.82617123 302.07106905 76.4375 302.0625 C75.04492344 302.05748666 73.65234519 302.05292347 72.25976562 302.04882812 C68.8398013 302.03699434 65.41992156 302.0205088 62 302 C62.00523682 302.87325928 62.01047363 303.74651855 62.01586914 304.64624023 C62.03287751 307.87589273 62.04543369 311.10552245 62.05493164 314.33520508 C62.0599708 315.73495228 62.06680216 317.1346942 62.07543945 318.53442383 C62.0875232 320.54245777 62.09269807 322.55052957 62.09765625 324.55859375 C62.10289307 325.76829834 62.10812988 326.97800293 62.11352539 328.22436523 C62 331 62 331 61 332 C58.85441173 332.08775605 56.70595579 332.10695219 54.55859375 332.09765625 C53.25341797 332.09443359 51.94824219 332.09121094 50.60351562 332.08789062 C49.2148431 332.07953401 47.82617123 332.07106905 46.4375 332.0625 C45.04492344 332.05748666 43.65234519 332.05292347 42.25976562 332.04882812 C38.8398013 332.03699434 35.41992156 332.0205088 32 332 C32.01571045 333.30203369 32.01571045 333.30203369 32.03173828 334.63037109 C32.06579716 337.84699528 32.09088767 341.06352767 32.10986328 344.28027344 C32.11992877 345.67320781 32.13358234 347.06612102 32.15087891 348.45898438 C32.1751022 350.4595436 32.18540814 352.46025615 32.1953125 354.4609375 C32.21102295 356.26763916 32.21102295 356.26763916 32.22705078 358.11083984 C32 361 32 361 30 363 C27.20263672 363.22705078 27.20263672 363.22705078 23.6796875 363.1953125 C22.42285156 363.18886719 21.16601562 363.18242187 19.87109375 363.17578125 C18.55238281 363.15902344 17.23367188 363.14226562 15.875 363.125 C14.53516279 363.11496983 13.19531848 363.10584404 11.85546875 363.09765625 C8.57013427 363.07402075 5.28515535 363.04107234 2 363 C2.01160156 363.83660156 2.02320313 364.67320312 2.03515625 365.53515625 C2.04417969 366.69917969 2.05320312 367.86320312 2.0625 369.0625 C2.07410156 370.18785156 2.08570313 371.31320312 2.09765625 372.47265625 C1.95706363 378.99053002 1.43366337 385.49504951 1 392 C-9.23 392 -19.46 392 -30 392 C-29.67 382.1 -29.34 372.2 -29 362 C-19.1 362 -9.2 362 1 362 C1 352.1 1 342.2 1 332 C15.355 331.505 15.355 331.505 30 331 C30.33 321.43 30.66 311.86 31 302 C50.71082108 301.25267029 70.27603679 300.90235662 90 301 C90 291.1 90 281.2 90 271 C99.9 271 109.8 271 120 271 C119.96043462 261.546114 119.96043462 261.546114 119.90991211 252.09228516 C119.90616577 250.33343994 119.90616577 250.33343994 119.90234375 248.5390625 C119.89710693 247.33459473 119.89187012 246.13012695 119.88647461 244.88916016 C120 242 120 242 121 240 C130.57 240 140.14 240 150 240 C150 230.43 150 220.86 150 211 C158.94923957 206.52538021 169.99444599 210 180 210 C180 161.16 180 112.32 180 62 C170.76 62 161.52 62 152 62 C151.34 61.67 150.68 61.34 150 61 C150 51.1 150 41.2 150 31 C140.59107093 31.07906928 140.59107093 31.07906928 131.18237305 31.18017578 C130.01230713 31.1851709 128.84224121 31.19016602 127.63671875 31.1953125 C125.83787231 31.21102295 125.83787231 31.21102295 124.00268555 31.22705078 C121 31 121 31 118 29 C118.33 20.09 118.66 11.18 119 2 C80.39 2 41.78 2 2 2 C2 11.24 2 20.48 2 30 C1.34 30 0.68 30 0 30 C0 20.1 0 10.2 0 0 Z " fill="#9757E7" transform="translate(294,48)"/>
<path d="M0 0 C19.8 0 39.6 0 60 0 C60 19.8 60 39.6 60 60 C40.2 60 20.4 60 0 60 C0 40.2 0 20.4 0 0 Z " fill="#FEFDFE" transform="translate(114,139)"/>
<path d="M0 0 C10.23 0 20.46 0 31 0 C31.02094549 7.66837567 31.04098358 15.33664831 31.05175018 23.00502777 C31.0570399 26.57571125 31.06411339 30.14637115 31.07543945 33.71704102 C31.08834176 37.81006097 31.09322906 41.9030558 31.09765625 45.99609375 C31.10281754 47.28148544 31.10797882 48.56687714 31.11329651 49.89122009 C31.11340981 51.66294334 31.11340981 51.66294334 31.11352539 53.47045898 C31.115746 54.51636703 31.11796661 55.56227509 31.12025452 56.63987732 C31 59 31 59 30 60 C20.1 60 10.2 60 0 60 C0 40.2 0 20.4 0 0 Z " fill="#A45EFD" transform="translate(234,109)"/>
<path d="M0 0 C15.75917064 -0.02254729 31.51832858 -0.04097933 47.27751064 -0.05181217 C54.59427402 -0.05697506 61.9110267 -0.06401762 69.2277832 -0.07543945 C75.60283018 -0.08538651 81.97786941 -0.09185348 88.35292393 -0.09408849 C91.73048014 -0.09539557 95.10801416 -0.09848119 98.48556328 -0.10573006 C102.25007343 -0.11293613 106.01453685 -0.11399113 109.77905273 -0.11352539 C110.90689682 -0.11712067 112.03474091 -0.12071594 113.19676208 -0.12442017 C114.21624939 -0.1230455 115.23573669 -0.12167084 116.28611755 -0.12025452 C117.17749137 -0.12117631 118.06886518 -0.1220981 118.98725033 -0.12304783 C121 0 121 0 122 1 C122.08775605 3.14558827 122.10695219 5.29404421 122.09765625 7.44140625 C122.09282227 9.39916992 122.09282227 9.39916992 122.08789062 11.39648438 C122.07953401 12.7851569 122.07106905 14.17382877 122.0625 15.5625 C122.05748666 16.95507656 122.05292347 18.34765481 122.04882812 19.74023438 C122.03699434 23.1601987 122.0205088 26.58007844 122 30 C123.30988892 29.99214478 123.30988892 29.99214478 124.64624023 29.98413086 C127.87589273 29.96712249 131.10552245 29.95456631 134.33520508 29.94506836 C135.73495228 29.9400292 137.1346942 29.93319784 138.53442383 29.92456055 C140.54245777 29.9124768 142.55052957 29.90730193 144.55859375 29.90234375 C146.37315063 29.89448853 146.37315063 29.89448853 148.22436523 29.88647461 C151 30 151 30 152 31 C152.08775605 33.14558827 152.10695219 35.29404421 152.09765625 37.44140625 C152.09443359 38.74658203 152.09121094 40.05175781 152.08789062 41.39648438 C152.07953401 42.7851569 152.07106905 44.17382877 152.0625 45.5625 C152.05748666 46.95507656 152.05292347 48.34765481 152.04882812 49.74023438 C152.03699434 53.1601987 152.0205088 56.58007844 152 60 C152.87325928 59.99476318 153.74651855 59.98952637 154.64624023 59.98413086 C157.87589273 59.96712249 161.10552245 59.95456631 164.33520508 59.94506836 C165.73495228 59.9400292 167.1346942 59.93319784 168.53442383 59.92456055 C170.54245777 59.9124768 172.55052957 59.90730193 174.55859375 59.90234375 C176.37315063 59.89448853 176.37315063 59.89448853 178.22436523 59.88647461 C181 60 181 60 182 61 C182.09881747 62.93397489 182.12632227 64.87160777 182.12698364 66.80810547 C182.12980347 68.07015808 182.13262329 69.33221069 182.13552856 70.63250732 C182.13358397 72.04406752 182.13153578 73.45562758 182.12939453 74.8671875 C182.13074852 76.34352664 182.13252844 77.81986545 182.13470459 79.29620361 C182.13927919 83.31675284 182.13748926 87.33727653 182.1343255 91.35782623 C182.13180204 95.55609712 182.1341394 99.75436575 182.13571167 103.95263672 C182.13753341 111.00423579 182.13512695 118.05582439 182.13037109 125.10742188 C182.12492847 133.2718305 182.12669112 141.43621416 182.1321975 149.60062218 C182.13672852 156.59762982 182.13737923 163.59462993 182.13475883 170.59163857 C182.13319599 174.77624547 182.13300247 178.96084062 182.13629532 183.14544678 C182.13917387 187.07863286 182.13719864 191.01178661 182.13140106 194.94496918 C182.13007338 196.3926259 182.13046772 197.84028532 182.13266373 199.28794098 C182.13537487 201.25592454 182.13138073 203.22391402 182.12698364 205.19189453 C182.1264181 206.84779099 182.1264181 206.84779099 182.12584114 208.53713989 C182 211 182 211 181 212 C178.85441173 212.08775605 176.70595579 212.10695219 174.55859375 212.09765625 C173.25341797 212.09443359 171.94824219 212.09121094 170.60351562 212.08789062 C169.2148431 212.07953401 167.82617123 212.07106905 166.4375 212.0625 C165.04492344 212.05748666 163.65234519 212.05292347 162.25976562 212.04882812 C158.8398013 212.03699434 155.41992156 212.0205088 152 212 C152.00523682 212.87325928 152.01047363 213.74651855 152.01586914 214.64624023 C152.03287751 217.87589273 152.04543369 221.10552245 152.05493164 224.33520508 C152.0599708 225.73495228 152.06680216 227.1346942 152.07543945 228.53442383 C152.0875232 230.54245777 152.09269807 232.55052957 152.09765625 234.55859375 C152.10289307 235.76829834 152.10812988 236.97800293 152.11352539 238.22436523 C152 241 152 241 151 242 C148.85441173 242.08775605 146.70595579 242.10695219 144.55859375 242.09765625 C143.25341797 242.09443359 141.94824219 242.09121094 140.60351562 242.08789062 C139.2148431 242.07953401 137.82617123 242.07106905 136.4375 242.0625 C135.04492344 242.05748666 133.65234519 242.05292347 132.25976562 242.04882812 C128.8398013 242.03699434 125.41992156 242.0205088 122 242 C122.00523682 242.87325928 122.01047363 243.74651855 122.01586914 244.64624023 C122.03287751 247.87589273 122.04543369 251.10552245 122.05493164 254.33520508 C122.0599708 255.73495228 122.06680216 257.1346942 122.07543945 258.53442383 C122.0875232 260.54245777 122.09269807 262.55052957 122.09765625 264.55859375 C122.10289307 265.76829834 122.10812988 266.97800293 122.11352539 268.22436523 C122 271 122 271 121 272 C118.85441173 272.08775605 116.70595579 272.10695219 114.55859375 272.09765625 C113.25341797 272.09443359 111.94824219 272.09121094 110.60351562 272.08789062 C109.2148431 272.07953401 107.82617123 272.07106905 106.4375 272.0625 C105.04492344 272.05748666 103.65234519 272.05292347 102.25976562 272.04882812 C98.8398013 272.03699434 95.41992156 272.0205088 92 272 C92.00523682 272.87325928 92.01047363 273.74651855 92.01586914 274.64624023 C92.03287751 277.87589273 92.04543369 281.10552245 92.05493164 284.33520508 C92.0599708 285.73495228 92.06680216 287.1346942 92.07543945 288.53442383 C92.0875232 290.54245777 92.09269807 292.55052957 92.09765625 294.55859375 C92.10289307 295.76829834 92.10812988 296.97800293 92.11352539 298.22436523 C92 301 92 301 91 302 C88.85441173 302.08775605 86.70595579 302.10695219 84.55859375 302.09765625 C83.38353271 302.09515869 82.20847168 302.09266113 80.99780273 302.09008789 C79.49290283 302.08098389 77.98800293 302.07187988 76.4375 302.0625 C71.673125 302.041875 66.90875 302.02125 62 302 C62 311.57 62 321.14 62 331 C61.67 331 61.34 331 61 331 C61 321.1 61 311.2 61 301 C70.57 301 80.14 301 90 301 C90 291.1 90 281.2 90 271 C99.9 271 109.8 271 120 271 C119.96043462 261.546114 119.96043462 261.546114 119.90991211 252.09228516 C119.90741455 250.91972168 119.90491699 249.7471582 119.90234375 248.5390625 C119.89710693 247.33459473 119.89187012 246.13012695 119.88647461 244.88916016 C120 242 120 242 121 240 C130.57 240 140.14 240 150 240 C150 230.43 150 220.86 150 211 C158.94923957 206.52538021 169.99444599 210 180 210 C180 161.16 180 112.32 180 62 C170.76 62 161.52 62 152 62 C151.34 61.67 150.68 61.34 150 61 C150 51.1 150 41.2 150 31 C140.59107093 31.07906928 140.59107093 31.07906928 131.18237305 31.18017578 C130.01230713 31.1851709 128.84224121 31.19016602 127.63671875 31.1953125 C125.83787231 31.21102295 125.83787231 31.21102295 124.00268555 31.22705078 C121 31 121 31 118 29 C118.33 20.09 118.66 11.18 119 2 C80.39 2 41.78 2 2 2 C2 11.24 2 20.48 2 30 C1.34 30 0.68 30 0 30 C0 20.1 0 10.2 0 0 Z " fill="#7344A0" transform="translate(294,48)"/>
<path d="M0 0 C9.9 0 19.8 0 30 0 C30 9.9 30 19.8 30 30 C20.1 30 10.2 30 0 30 C0 20.1 0 10.2 0 0 Z " fill="#FDFBFE" transform="translate(84,109)"/>
<path d="M0 0 C9.9 0 19.8 0 30 0 C30 9.9 30 19.8 30 30 C20.1 30 10.2 30 0 30 C0 20.1 0 10.2 0 0 Z " fill="#A560FC" transform="translate(204,79)"/>
<path d="M0 0 C9.57 0 19.14 0 29 0 C29 9.9 29 19.8 29 30 C19.1 30 9.2 30 -1 30 C-0.67 20.1 -0.34 10.2 0 0 Z " fill="#A35FF8" transform="translate(265,410)"/>
<path d="M0 0 C9.9 0 19.8 0 30 0 C30 9.9 30 19.8 30 30 C20.43 30 10.86 30 1 30 C0.67 20.1 0.34 10.2 0 0 Z " fill="#A460FA" transform="translate(144,349)"/>
<path d="M0 0 C1.00514648 0.00249756 2.01029297 0.00499512 3.04589844 0.00756836 C4.94903809 0.02122437 4.94903809 0.02122437 6.890625 0.03515625 C10.933125 0.05578125 14.975625 0.07640625 19.140625 0.09765625 C19.140625 9.99765625 19.140625 19.89765625 19.140625 30.09765625 C9.570625 30.09765625 0.000625 30.09765625 -9.859375 30.09765625 C-9.859375 20.52765625 -9.859375 10.95765625 -9.859375 1.09765625 C-6.27380492 0.20126373 -3.64995308 -0.01862221 0 0 Z " fill="#A45FFA" transform="translate(64.859375,78.90234375)"/>
<path d="M0 0 C9.9 0.33 19.8 0.66 30 1 C30 10.57 30 20.14 30 30 C20.43 30 10.86 30 1 30 C0.67 20.1 0.34 10.2 0 0 Z " fill="#A45EFC" transform="translate(204,409)"/>
<path d="M0 0 C9.57 0 19.14 0 29 0 C29 9.57 29 19.14 29 29 C19.43 29 9.86 29 0 29 C0 19.43 0 9.86 0 0 Z " fill="#A35FFA" transform="translate(295,380)"/>
<path d="M0 0 C9.57 0 19.14 0 29 0 C29 9.57 29 19.14 29 29 C19.43 29 9.86 29 0 29 C0 19.43 0 9.86 0 0 Z " fill="#A35EFA" transform="translate(175,380)"/>
<path d="M0 0 C9.57 0 19.14 0 29 0 C29 9.57 29 19.14 29 29 C19.43 29 9.86 29 0 29 C0 19.43 0 9.86 0 0 Z " fill="#A45FFA" transform="translate(355,320)"/>
<path d="M0 0 C9.57 0 19.14 0 29 0 C29 9.57 29 19.14 29 29 C19.43 29 9.86 29 0 29 C0 19.43 0 9.86 0 0 Z " fill="#A35FFA" transform="translate(385,290)"/>
<path d="M0 0 C9.57 0 19.14 0 29 0 C29 9.57 29 19.14 29 29 C19.43 29 9.86 29 0 29 C0 19.43 0 9.86 0 0 Z " fill="#A45EFC" transform="translate(415,259)"/>
<path d="M0 0 C9.57 0 19.14 0 29 0 C29 9.57 29 19.14 29 29 C19.43 29 9.86 29 0 29 C0 19.43 0 9.86 0 0 Z " fill="#A45FFB" transform="translate(55,259)"/>
<path d="M0 0 C9.24 0 18.48 0 28 0 C28 9.9 28 19.8 28 30 C24.865 29.855625 21.73 29.71125 18.5 29.5625 C17.04303711 29.49784546 17.04303711 29.49784546 15.55664062 29.43188477 C14.76451172 29.39377686 13.97238281 29.35566895 13.15625 29.31640625 C12.36025391 29.27974854 11.56425781 29.24309082 10.74414062 29.20532227 C7.15034016 28.9364267 3.57601674 28.44700209 0 28 C0 18.76 0 9.52 0 0 Z " fill="#A55FFC" transform="translate(116,319)"/>
<path d="M0 0 C8.25 0 16.5 0 25 0 C25.67355557 4.0413334 26.12220425 7.20291142 26.09765625 11.1796875 C26.09515869 12.01741699 26.09266113 12.85514648 26.09008789 13.71826172 C26.08098389 14.75998535 26.07187988 15.80170898 26.0625 16.875 C26.041875 20.21625 26.02125 23.5575 26 27 C17.09 27 8.18 27 -1 27 C-1.020625 23.101875 -1.04125 19.20375 -1.0625 15.1875 C-1.071604 13.96184326 -1.08070801 12.73618652 -1.09008789 11.47338867 C-1.09258545 10.5063501 -1.09508301 9.53931152 -1.09765625 8.54296875 C-1.10289307 7.55321045 -1.10812988 6.56345215 -1.11352539 5.54370117 C-1 3 -1 3 0 0 Z " fill="#A45EFC" transform="translate(237,441)"/>
<path d="M0 0 C4.25414623 -0.02465622 8.50825498 -0.04283899 12.76245117 -0.05493164 C14.21070073 -0.05997101 15.65894517 -0.06680253 17.10717773 -0.07543945 C19.18474588 -0.08752247 21.26224697 -0.09323211 23.33984375 -0.09765625 C24.59144287 -0.10289307 25.84304199 -0.10812988 27.13256836 -0.11352539 C30 0 30 0 31 1 C31.08775605 3.14558827 31.10695219 5.29404421 31.09765625 7.44140625 C31.09443359 8.74658203 31.09121094 10.05175781 31.08789062 11.39648438 C31.07953401 12.7851569 31.07106905 14.17382877 31.0625 15.5625 C31.05748666 16.95507656 31.05292347 18.34765481 31.04882812 19.74023438 C31.03699434 23.1601987 31.0205088 26.58007844 31 30 C32.30988892 29.99214478 32.30988892 29.99214478 33.64624023 29.98413086 C36.87589273 29.96712249 40.10552245 29.95456631 43.33520508 29.94506836 C44.73495228 29.9400292 46.1346942 29.93319784 47.53442383 29.92456055 C49.54245777 29.9124768 51.55052957 29.90730193 53.55859375 29.90234375 C55.37315063 29.89448853 55.37315063 29.89448853 57.22436523 29.88647461 C60 30 60 30 61 31 C61.08775605 33.14558827 61.10695219 35.29404421 61.09765625 37.44140625 C61.09443359 38.74658203 61.09121094 40.05175781 61.08789062 41.39648438 C61.07953401 42.7851569 61.07106905 44.17382877 61.0625 45.5625 C61.05748666 46.95507656 61.05292347 48.34765481 61.04882812 49.74023438 C61.03699434 53.1601987 61.0205088 56.58007844 61 60 C61.87325928 59.99476318 62.74651855 59.98952637 63.64624023 59.98413086 C66.87589273 59.96712249 70.10552245 59.95456631 73.33520508 59.94506836 C74.73495228 59.9400292 76.1346942 59.93319784 77.53442383 59.92456055 C79.54245777 59.9124768 81.55052957 59.90730193 83.55859375 59.90234375 C85.37315063 59.89448853 85.37315063 59.89448853 87.22436523 59.88647461 C90 60 90 60 91 61 C91.08775605 63.14558827 91.10695219 65.29404421 91.09765625 67.44140625 C91.09282227 69.39916992 91.09282227 69.39916992 91.08789062 71.39648438 C91.07953401 72.7851569 91.07106905 74.17382877 91.0625 75.5625 C91.05748666 76.95507656 91.05292347 78.34765481 91.04882812 79.74023438 C91.03699434 83.1601987 91.0205088 86.58007844 91 90 C91.59981689 89.99476318 92.19963379 89.98952637 92.81762695 89.98413086 C112.67456816 89.84072668 132.52192569 90.15070673 152.375 90.5 C153.05483067 90.51195782 153.73466133 90.52391563 154.43509293 90.53623581 C162.95680757 90.68652717 171.47843853 90.8412599 180 91 C180 91.33 180 91.66 180 92 C170.43 92 160.86 92 151 92 C151.03959626 101.49892964 151.03959626 101.49892964 151.09008789 110.99780273 C151.09383423 112.76039429 151.09383423 112.76039429 151.09765625 114.55859375 C151.10289307 115.76829834 151.10812988 116.97800293 151.11352539 118.22436523 C151 121 151 121 150 122 C145.88422411 122.21789186 141.76535077 122.18579188 137.64428711 122.18530273 C135.57449736 122.18748734 133.50524207 122.20563491 131.43554688 122.22460938 C130.13810547 122.22654297 128.84066406 122.22847656 127.50390625 122.23046875 C126.30580322 122.23457764 125.1077002 122.23868652 123.87329102 122.24291992 C121 122 121 122 119 120 C118.77294922 117.20263672 118.77294922 117.20263672 118.8046875 113.6796875 C118.81113281 112.42285156 118.81757813 111.16601562 118.82421875 109.87109375 C118.84935547 107.89302734 118.84935547 107.89302734 118.875 105.875 C118.88503017 104.53516279 118.89415596 103.19531848 118.90234375 101.85546875 C118.92597925 98.57013427 118.95892766 95.28515535 119 92 C118.16227051 92.01047363 117.32454102 92.02094727 116.46142578 92.03173828 C113.35661836 92.06580019 110.25190608 92.09088911 107.14697266 92.10986328 C105.1408864 92.12488107 103.13488676 92.15028981 101.12890625 92.17578125 C99.87207031 92.18222656 98.61523438 92.18867188 97.3203125 92.1953125 C96.15773926 92.20578613 94.99516602 92.21625977 93.79736328 92.22705078 C91 92 91 92 89 90 C88.77294922 87.20263672 88.77294922 87.20263672 88.8046875 83.6796875 C88.81113281 82.42285156 88.81757813 81.16601562 88.82421875 79.87109375 C88.84935547 77.89302734 88.84935547 77.89302734 88.875 75.875 C88.88503017 74.53516279 88.89415596 73.19531848 88.90234375 71.85546875 C88.92597925 68.57013427 88.95892766 65.28515535 89 62 C88.16227051 62.01047363 87.32454102 62.02094727 86.46142578 62.03173828 C83.35661836 62.06580019 80.25190608 62.09088911 77.14697266 62.10986328 C75.1408864 62.12488107 73.13488676 62.15028981 71.12890625 62.17578125 C69.87207031 62.18222656 68.61523438 62.18867188 67.3203125 62.1953125 C66.15773926 62.20578613 64.99516602 62.21625977 63.79736328 62.22705078 C61 62 61 62 59 60 C58.77294922 57.11083984 58.77294922 57.11083984 58.8046875 53.4609375 C58.81113281 52.15898437 58.81757813 50.85703125 58.82421875 49.515625 C58.84093071 48.13541405 58.85786061 46.75520571 58.875 45.375 C58.88502994 43.98698548 58.89415577 42.59896411 58.90234375 41.2109375 C58.92598137 37.80711974 58.95893133 34.40364494 59 31 C58.16227051 31.0407666 57.32454102 31.0815332 56.46142578 31.12353516 C53.35691524 31.26968556 50.25217512 31.40655576 47.14697266 31.53710938 C45.80240434 31.59555475 44.45799202 31.65771076 43.11376953 31.72363281 C41.18306663 31.81767443 39.2516797 31.89732692 37.3203125 31.9765625 C35.57645264 32.05511475 35.57645264 32.05511475 33.79736328 32.13525391 C31 32 31 32 29 30 C28.77294922 27.20263672 28.77294922 27.20263672 28.8046875 23.6796875 C28.80968262 22.54772949 28.81467773 21.41577148 28.81982422 20.24951172 C28.83803223 18.80592285 28.85624023 17.36233398 28.875 15.875 C28.91625 11.29625 28.9575 6.7175 29 2 C19.43 1.67 9.86 1.34 0 1 C0 0.67 0 0.34 0 0 Z M123 92 C121.9605225 95.1184325 121.88505162 97.27475586 121.90234375 100.54296875 C121.90484131 101.51000732 121.90733887 102.4770459 121.90991211 103.47338867 C121.91901611 104.69904541 121.92812012 105.92470215 121.9375 107.1875 C121.958125 111.085625 121.97875 114.98375 122 119 C130.91 119 139.82 119 149 119 C149.020625 115.65875 149.04125 112.3175 149.0625 108.875 C149.071604 107.83327637 149.08070801 106.79155273 149.09008789 105.71826172 C149.09258545 104.88053223 149.09508301 104.04280273 149.09765625 103.1796875 C149.10289307 102.33132324 149.10812988 101.48295898 149.11352539 100.60888672 C149.0274773 97.41646893 149.0274773 97.41646893 148 92 C139.75 92 131.5 92 123 92 Z " fill="#663793" transform="translate(114,349)"/>
<path d="M0 0 C0 0.66 0 1.32 0 2 C-9.9 2 -19.8 2 -30 2 C-30 11.9 -30 21.8 -30 32 C-39.9 32 -49.8 32 -60 32 C-60 41.9 -60 51.8 -60 62 C-50.1 62 -40.2 62 -30 62 C-30 71.9 -30 81.8 -30 92 C-20.43 92 -10.86 92 -1 92 C-1 82.1 -1 72.2 -1 62 C9.23 62 19.46 62 30 62 C30 52.1 30 42.2 30 32 C30.33 32 30.66 32 31 32 C31 42.23 31 52.46 31 63 C26.83929946 65.08035027 25.40430096 65.19628926 20.921875 64.9765625 C19.18164062 64.89921875 19.18164062 64.89921875 17.40625 64.8203125 C16.1996875 64.75585938 14.993125 64.69140625 13.75 64.625 C11.91695312 64.53992188 11.91695312 64.53992188 10.046875 64.453125 C7.0306498 64.31173944 4.0152677 64.16033265 1 64 C1.0407666 64.86802246 1.0815332 65.73604492 1.12353516 66.63037109 C1.26967355 69.84670908 1.40654664 73.06326849 1.53710938 76.28027344 C1.59555965 77.67333833 1.65771628 79.0662528 1.72363281 80.45898438 C1.81766015 82.45920227 1.89732059 84.46007932 1.9765625 86.4609375 C2.02893066 87.66540527 2.08129883 88.86987305 2.13525391 90.11083984 C2 93 2 93 0 95 C-3.04101562 95.15112305 -3.04101562 95.15112305 -6.90625 95.01171875 C-7.58675415 94.98906448 -8.2672583 94.96641022 -8.96838379 94.94306946 C-10.40764779 94.89309788 -11.84674568 94.83813056 -13.28564453 94.77856445 C-15.49095186 94.6878721 -17.6963589 94.6131372 -19.90234375 94.54101562 C-30.69828046 94.15085977 -30.69828046 94.15085977 -33 93 C-32.67 83.43 -32.34 73.86 -32 64 C-41.24 64 -50.48 64 -60 64 C-60.33 63.01 -60.66 62.02 -61 61 C-61.66 61 -62.32 61 -63 61 C-63.07421454 57.06739056 -63.12863136 53.13505278 -63.16479492 49.2019043 C-63.18728333 47.20672299 -63.22540198 45.21173787 -63.26367188 43.21679688 C-63.27333984 41.96318359 -63.28300781 40.70957031 -63.29296875 39.41796875 C-63.3086792 38.26063232 -63.32438965 37.1032959 -63.34057617 35.91088867 C-63 33 -63 33 -61.86914062 31.1171875 C-59.13626885 29.4837469 -56.96699004 29.66243676 -53.80078125 29.70703125 C-52.16749878 29.71827026 -52.16749878 29.71827026 -50.5012207 29.72973633 C-49.11894287 29.75704834 -47.73666504 29.78436035 -46.3125 29.8125 C-41.919375 29.874375 -37.52625 29.93625 -33 30 C-33 20.43 -33 10.86 -33 1 C-28.54249167 -1.22875416 -22.53022665 -0.453418 -17.625 -0.625 C-16.37976563 -0.6765625 -15.13453125 -0.728125 -13.8515625 -0.78125 C-12.0571875 -0.84699219 -12.0571875 -0.84699219 -10.2265625 -0.9140625 C-8.58034912 -0.9752124 -8.58034912 -0.9752124 -6.90087891 -1.03759766 C-4.37464583 -1.0048557 -2.39488545 -0.75135085 0 0 Z " fill="#CFB0EF" transform="translate(325,197)"/>
<path d="M0 0 C0.33 0 0.66 0 1 0 C1 9.9 1 19.8 1 30 C-8.57 30.33 -18.14 30.66 -28 31 C-28 40.57 -28 50.14 -28 60 C-38.23 60 -48.46 60 -59 60 C-59 109.5 -59 159 -59 210 C-49.1 210 -39.2 210 -29 210 C-29 219.9 -29 229.8 -29 240 C-19.43 240 -9.86 240 0 240 C0 240.33 0 240.66 0 241 C-9.9 241 -19.8 241 -30 241 C-30 231.1 -30 221.2 -30 211 C-39.9 211 -49.8 211 -60 211 C-60 160.84 -60 110.68 -60 59 C-50.1 59 -40.2 59 -30 59 C-30.03959626 49.50107036 -30.03959626 49.50107036 -30.09008789 40.00219727 C-30.09258545 38.82713623 -30.09508301 37.6520752 -30.09765625 36.44140625 C-30.10289307 35.23170166 -30.10812988 34.02199707 -30.11352539 32.77563477 C-30 30 -30 30 -29 29 C-26.85441173 28.91224395 -24.70595579 28.89304781 -22.55859375 28.90234375 C-21.38353271 28.90484131 -20.20847168 28.90733887 -18.99780273 28.90991211 C-17.49290283 28.91901611 -15.98800293 28.92812012 -14.4375 28.9375 C-9.673125 28.958125 -4.90875 28.97875 0 29 C0 19.43 0 9.86 0 0 Z " fill="#5B3782" transform="translate(83,49)"/>
<path d="M0 0 C39.93 0 79.86 0 121 0 C121 9.9 121 19.8 121 30 C119.515 29.505 119.515 29.505 118 29 C118.33 20.09 118.66 11.18 119 2 C80.39 2 41.78 2 2 2 C2 11.24 2 20.48 2 30 C1.34 30 0.68 30 0 30 C0 20.1 0 10.2 0 0 Z " fill="#8550BF" transform="translate(294,48)"/>
<path d="M0 0 C10.23 0 20.46 0 31 0 C31 0.33 31 0.66 31 1 C21.43 1 11.86 1 2 1 C2.03959626 10.49892964 2.03959626 10.49892964 2.09008789 19.99780273 C2.09258545 21.17286377 2.09508301 22.3479248 2.09765625 23.55859375 C2.10289307 24.76829834 2.10812988 25.97800293 2.11352539 27.22436523 C2 30 2 30 1 31 C-1.14558827 31.08775605 -3.29404421 31.10695219 -5.44140625 31.09765625 C-6.74658203 31.09443359 -8.05175781 31.09121094 -9.39648438 31.08789062 C-10.7851569 31.07953401 -12.17382877 31.07106905 -13.5625 31.0625 C-14.95507656 31.05748666 -16.34765481 31.05292347 -17.74023438 31.04882812 C-21.1601987 31.03699434 -24.58007844 31.0205088 -28 31 C-27.99476318 31.87325928 -27.98952637 32.74651855 -27.98413086 33.64624023 C-27.96712249 36.87589273 -27.95456631 40.10552245 -27.94506836 43.33520508 C-27.9400292 44.73495228 -27.93319784 46.1346942 -27.92456055 47.53442383 C-27.9124768 49.54245777 -27.90730193 51.55052957 -27.90234375 53.55859375 C-27.89710693 54.76829834 -27.89187012 55.97800293 -27.88647461 57.22436523 C-28 60 -28 60 -29 61 C-31.14558827 61.08775605 -33.29404421 61.10695219 -35.44140625 61.09765625 C-36.74658203 61.09443359 -38.05175781 61.09121094 -39.39648438 61.08789062 C-40.7851569 61.07953401 -42.17382877 61.07106905 -43.5625 61.0625 C-44.95507656 61.05748666 -46.34765481 61.05292347 -47.74023438 61.04882812 C-51.1601987 61.03699434 -54.58007844 61.0205088 -58 61 C-57.99214478 62.30988892 -57.99214478 62.30988892 -57.98413086 63.64624023 C-57.96712249 66.87589273 -57.95456631 70.10552245 -57.94506836 73.33520508 C-57.9400292 74.73495228 -57.93319784 76.1346942 -57.92456055 77.53442383 C-57.9124768 79.54245777 -57.90730193 81.55052957 -57.90234375 83.55859375 C-57.89448853 85.37315063 -57.89448853 85.37315063 -57.88647461 87.22436523 C-58 90 -58 90 -59 91 C-61.14558827 91.08775605 -63.29404421 91.10695219 -65.44140625 91.09765625 C-66.61646729 91.09515869 -67.79152832 91.09266113 -69.00219727 91.09008789 C-70.50709717 91.08098389 -72.01199707 91.07187988 -73.5625 91.0625 C-78.326875 91.041875 -83.09125 91.02125 -88 91 C-88 100.57 -88 110.14 -88 120 C-88.33 120 -88.66 120 -89 120 C-89 110.1 -89 100.2 -89 90 C-79.43 90 -69.86 90 -60 90 C-60 80.1 -60 70.2 -60 60 C-50.1 60 -40.2 60 -30 60 C-30.03956538 50.546114 -30.03956538 50.546114 -30.09008789 41.09228516 C-30.09258545 39.91972168 -30.09508301 38.7471582 -30.09765625 37.5390625 C-30.10289307 36.33459473 -30.10812988 35.13012695 -30.11352539 33.88916016 C-30 31 -30 31 -29 29 C-19.43 29 -9.86 29 0 29 C0 19.43 0 9.86 0 0 Z " fill="#613389" transform="translate(444,259)"/>
<path d="M0 0 C0.66 0 1.32 0 2 0 C2 9.57 2 19.14 2 29 C8.8371875 28.9690625 8.8371875 28.9690625 15.8125 28.9375 C30.56322097 28.90516231 45.26388414 29.31906359 60 30 C60 30.33 60 30.66 60 31 C51.09 31 42.18 31 33 31 C33.495 43.375 33.495 43.375 34 56 C39.71094255 56.83149539 39.71094255 56.83149539 45.40234375 57.31640625 C46.51899414 57.37924805 46.51899414 57.37924805 47.65820312 57.44335938 C48.78645508 57.50233398 48.78645508 57.50233398 49.9375 57.5625 C51.10635742 57.62727539 51.10635742 57.62727539 52.29882812 57.69335938 C54.19907117 57.79828077 56.09951669 57.8995245 58 58 C58 58.33 58 58.66 58 59 C48.76 59 39.52 59 30 59 C30 49.43 30 39.86 30 30 C20.50107036 30.03959626 20.50107036 30.03959626 11.00219727 30.09008789 C9.82713623 30.09258545 8.6520752 30.09508301 7.44140625 30.09765625 C6.23170166 30.10289307 5.02199707 30.10812988 3.77563477 30.11352539 C1 30 1 30 0 29 C-0.08775605 26.85441173 -0.10695219 24.70595579 -0.09765625 22.55859375 C-0.09443359 21.25341797 -0.09121094 19.94824219 -0.08789062 18.60351562 C-0.07953401 17.2148431 -0.07106905 15.82617123 -0.0625 14.4375 C-0.05748666 13.04492344 -0.05292347 11.65234519 -0.04882812 10.25976562 C-0.03699434 6.8398013 -0.0205088 3.41992156 0 0 Z " fill="#7D49B5" transform="translate(83,290)"/>
<path d="M0 0 C0.33 0 0.66 0 1 0 C1 19.47 1 38.94 1 59 C19.00275412 58.85628916 19.00275412 58.85628916 28 56 C28 38.18 28 20.36 28 2 C28.66 2 29.32 2 30 2 C30.33 1.34 30.66 0.68 31 0 C31.02312821 7.67536627 31.04091753 15.35072896 31.05181217 23.02612209 C31.05703995 26.58977422 31.06413569 30.15340257 31.07543945 33.71704102 C31.08834176 37.81006097 31.09322906 41.9030558 31.09765625 45.99609375 C31.10281754 47.28148544 31.10797882 48.56687714 31.11329651 49.89122009 C31.11340981 51.66294334 31.11340981 51.66294334 31.11352539 53.47045898 C31.115746 54.51636703 31.11796661 55.56227509 31.12025452 56.63987732 C31 59 31 59 30 60 C20.1 60 10.2 60 0 60 C0 40.2 0 20.4 0 0 Z " fill="#AE72F4" transform="translate(234,109)"/>
<path d="M0 0 C0.33 0 0.66 0 1 0 C1 9.9 1 19.8 1 30 C-8.9 30 -18.8 30 -29 30 C-29 39.9 -29 49.8 -29 60 C-19.1 60 -9.2 60 1 60 C1 69.9 1 79.8 1 90 C0.67 90 0.34 90 0 90 C0 80.43 0 70.86 0 61 C-10.23 61 -20.46 61 -31 61 C-31.33 50.44 -31.66 39.88 -32 29 C-30.35 28.34 -28.7 27.68 -27 27 C-27 27.33 -27 27.66 -27 28 C-13.635 28.495 -13.635 28.495 0 29 C0 19.43 0 9.86 0 0 Z " fill="#D4B7EF" transform="translate(354,109)"/>
<path d="M0 0 C39.6 0 79.2 0 120 0 C120 9.57 120 19.14 120 29 C119.67 29 119.34 29 119 29 C118.80374901 25.04204914 118.61948018 21.08363065 118.4375 17.125 C118.35338867 15.43310547 118.35338867 15.43310547 118.26757812 13.70703125 C118.19506836 12.09248047 118.19506836 12.09248047 118.12109375 10.4453125 C118.05039673 8.95281982 118.05039673 8.95281982 117.97827148 7.43017578 C118 5 118 5 119 3 C111.28951373 2.27024723 103.65083285 1.8416887 95.90722656 1.79467773 C94.87159576 1.78477814 93.83596497 1.77487854 92.76895142 1.76467896 C89.39286476 1.73344006 86.01676409 1.70845755 82.640625 1.68359375 C80.28122623 1.66299162 77.92183087 1.64199436 75.56243896 1.62062073 C69.38780508 1.56573637 63.21313976 1.5161804 57.03845215 1.46777344 C50.72352338 1.41731098 44.40863958 1.36175478 38.09375 1.30664062 C25.72920386 1.19947119 13.36461898 1.09840814 1 1 C1 10.24 1 19.48 1 29 C0.67 29 0.34 29 0 29 C0 19.43 0 9.86 0 0 Z " fill="#995DDD" transform="translate(84,49)"/>
<path d="M0 0 C0.33 0 0.66 0 1 0 C1 9.9 1 19.8 1 30 C-8.57 30.33 -18.14 30.66 -28 31 C-28 40.57 -28 50.14 -28 60 C-38.23 60 -48.46 60 -59 60 C-59 70.56 -59 81.12 -59 92 C-59.33 92 -59.66 92 -60 92 C-60 81.11 -60 70.22 -60 59 C-50.1 59 -40.2 59 -30 59 C-30.03959626 49.50107036 -30.03959626 49.50107036 -30.09008789 40.00219727 C-30.09258545 38.82713623 -30.09508301 37.6520752 -30.09765625 36.44140625 C-30.10289307 35.23170166 -30.10812988 34.02199707 -30.11352539 32.77563477 C-30 30 -30 30 -29 29 C-26.85441173 28.91224395 -24.70595579 28.89304781 -22.55859375 28.90234375 C-21.38353271 28.90484131 -20.20847168 28.90733887 -18.99780273 28.90991211 C-17.49290283 28.91901611 -15.98800293 28.92812012 -14.4375 28.9375 C-9.673125 28.958125 -4.90875 28.97875 0 29 C0 19.43 0 9.86 0 0 Z " fill="#643C8F" transform="translate(83,49)"/>
<path d="M0 0 C0.33 0 0.66 0 1 0 C1 10.23 1 20.46 1 31 C-3.16070054 33.08035027 -4.59569904 33.19628926 -9.078125 32.9765625 C-10.23828125 32.925 -11.3984375 32.8734375 -12.59375 32.8203125 C-14.40359375 32.72363281 -14.40359375 32.72363281 -16.25 32.625 C-18.08304687 32.53992188 -18.08304687 32.53992188 -19.953125 32.453125 C-22.9693502 32.31173944 -25.9847323 32.16033265 -29 32 C-28.99214478 33.21115479 -28.99214478 33.21115479 -28.98413086 34.44677734 C-28.96340071 38.08951038 -28.95035251 41.73223102 -28.9375 45.375 C-28.92912109 46.64601563 -28.92074219 47.91703125 -28.91210938 49.2265625 C-28.90727539 51.04414063 -28.90727539 51.04414063 -28.90234375 52.8984375 C-28.89448853 54.57945557 -28.89448853 54.57945557 -28.88647461 56.29443359 C-29 59 -29 59 -30 61 C-39.9 61 -49.8 61 -60 61 C-60 60.67 -60 60.34 -60 60 C-50.43 60 -40.86 60 -31 60 C-31 50.1 -31 40.2 -31 30 C-20.77 30 -10.54 30 0 30 C0 20.1 0 10.2 0 0 Z " fill="#D7B9F1" transform="translate(355,229)"/>
<path d="M0 0 C1.42336877 2.84673755 1.00758837 5.14615347 0.87890625 8.3203125 C0.83056641 9.57714844 0.78222656 10.83398438 0.73242188 12.12890625 C0.67634766 13.44761719 0.62027344 14.76632813 0.5625 16.125 C0.50927587 17.46482438 0.45653549 18.80466808 0.40429688 20.14453125 C0.27429992 23.42990887 0.13932314 26.71500678 0 30 C-0.99 29.67 -1.98 29.34 -3 29 C-2.67 28.67 -2.34 28.34 -2 28 C-1.84213692 26.14825294 -1.74892644 24.2909089 -1.68359375 22.43359375 C-1.64548584 21.42095459 -1.60737793 20.40831543 -1.56811523 19.36499023 C-1.50346069 17.42088257 -1.50346069 17.42088257 -1.4375 15.4375 C-1.293125 11.333125 -1.14875 7.22875 -1 3 C-9.58 3 -18.16 3 -27 3 C-27 9.27 -27 15.54 -27 22 C-26.34 22.33 -25.68 22.66 -25 23 C-25.33 23.33 -25.66 23.66 -26 24 C-26.04080783 25.99958364 -26.04254356 28.00045254 -26 30 C-26.99 30 -27.98 30 -29 30 C-29 20.43 -29 10.86 -29 1 C-19.43 0.67 -9.86 0.34 0 0 Z " fill="#A15FEA" transform="translate(294,78)"/>
<path d="M0 0 C9.9 0 19.8 0 30 0 C30 0.33 30 0.66 30 1 C20.95924544 3.6877919 12.2495643 2.79404612 3 2 C3.00523682 2.77714355 3.01047363 3.55428711 3.01586914 4.35498047 C3.03660156 7.86164549 3.04964821 11.36829763 3.0625 14.875 C3.07087891 16.09832031 3.07925781 17.32164062 3.08789062 18.58203125 C3.09111328 19.74863281 3.09433594 20.91523438 3.09765625 22.1171875 C3.10289307 23.19597168 3.10812988 24.27475586 3.11352539 25.38623047 C3 28 3 28 2 30 C1.34 30 0.68 30 0 30 C0 20.1 0 10.2 0 0 Z " fill="#CBA8F1" transform="translate(385,169)"/>
<path d="M0 0 C9.57 0 19.14 0 29 0 C29 9.57 29 19.14 29 29 C28.34 29 27.68 29 27 29 C27 20.09 27 11.18 27 2 C18.42 2 9.84 2 1 2 C1 9.59 1 17.18 1 25 C0.67 25 0.34 25 0 25 C0 16.75 0 8.5 0 0 Z " fill="#9F5FE7" transform="translate(205,79)"/>
<path d="M0 0 C9.9 0.33 19.8 0.66 30 1 C30 10.57 30 20.14 30 30 C20.43 30 10.86 30 1 30 C0.67 20.1 0.34 10.2 0 0 Z M2 2 C2 10.91 2 19.82 2 29 C7.878125 29.0309375 7.878125 29.0309375 13.875 29.0625 C15.10976074 29.071604 16.34452148 29.08070801 17.61669922 29.09008789 C18.58623535 29.09258545 19.55577148 29.09508301 20.5546875 29.09765625 C22.04718018 29.10551147 22.04718018 29.10551147 23.56982422 29.11352539 C26.00960773 29.1639415 26.00960773 29.1639415 28 28 C29.35364406 23.56210366 29.14852326 18.96987731 29.125 14.375 C29.12886719 13.611875 29.13273437 12.84875 29.13671875 12.0625 C29.13097136 8.78648638 29.04287441 6.12862324 28 3 C24.94080612 1.98026871 22.87581975 1.88466398 19.67578125 1.90234375 C18.28613159 1.90609009 18.28613159 1.90609009 16.8684082 1.90991211 C15.10823364 1.92356812 15.10823364 1.92356812 13.3125 1.9375 C7.7128125 1.9684375 7.7128125 1.9684375 2 2 Z " fill="#A262ED" transform="translate(204,409)"/>
<path d="M0 0 C9.57 0 19.14 0 29 0 C29 9.57 29 19.14 29 29 C28.67 29 28.34 29 28 29 C28 20.09 28 11.18 28 2 C19.42 2 10.84 2 2 2 C1.67 10.91 1.34 19.82 1 29 C0.67 29 0.34 29 0 29 C0 19.43 0 9.86 0 0 Z " fill="#A768F0" transform="translate(415,259)"/>
<path d="M0 0 C9.57 0 19.14 0 29 0 C29 0.66 29 1.32 29 2 C20.09 2 11.18 2 2 2 C1.97701978 8.86853161 1.95711336 15.7369293 1.94506836 22.60546875 C1.94004588 24.94108533 1.93322668 27.27669878 1.92456055 29.61230469 C1.9124037 32.97331517 1.90675076 36.33428401 1.90234375 39.6953125 C1.89718246 40.73615997 1.89202118 41.77700745 1.88670349 42.84939575 C1.8452157 49.98389094 1.8452157 49.98389094 3 57 C3.66 57.66 4.32 58.32 5 59 C3.35 59 1.7 59 0 59 C0 39.53 0 20.06 0 0 Z " fill="#A05FEA" transform="translate(235,109)"/>
<path d="M0 0 C9.9 0 19.8 0 30 0 C30 9.9 30 19.8 30 30 C29.67 30 29.34 30 29 30 C29 20.43 29 10.86 29 1 C24.730625 1.144375 20.46125 1.28875 16.0625 1.4375 C14.04008179 1.50215454 14.04008179 1.50215454 11.97680664 1.56811523 C10.3969397 1.6252771 10.3969397 1.6252771 8.78515625 1.68359375 C7.15912476 1.73858032 7.15912476 1.73858032 5.50024414 1.79467773 C3.060737 1.72364265 3.060737 1.72364265 2 3 C1.84213692 4.85174706 1.74892644 6.7090911 1.68359375 8.56640625 C1.64169922 9.69111328 1.59980469 10.81582031 1.55664062 11.97460938 C1.51732422 13.15861328 1.47800781 14.34261719 1.4375 15.5625 C1.39431641 16.75037109 1.35113281 17.93824219 1.30664062 19.16210938 C1.20016454 22.10794784 1.09815159 25.0538743 1 28 C0.67 28 0.34 28 0 28 C0 18.76 0 9.52 0 0 Z " fill="#F7E6FE" transform="translate(295,199)"/>
<path d="M0 0 C0.66 0 1.32 0 2 0 C2 9.57 2 19.14 2 29 C-7.9 29 -17.8 29 -28 29 C-28 28.67 -28 28.34 -28 28 C-19.09 27.67 -10.18 27.34 -1 27 C-0.67 18.09 -0.34 9.18 0 0 Z " fill="#965FD4" transform="translate(353,350)"/>
<path d="M0 0 C0.33 0 0.66 0 1 0 C1.33 8.91 1.66 17.82 2 27 C15.86 27.495 15.86 27.495 30 28 C30 28.33 30 28.66 30 29 C20.1 29 10.2 29 0 29 C0 19.43 0 9.86 0 0 Z " fill="#CBACEB" transform="translate(325,200)"/>
<path d="" fill="#000000" transform="translate(0,0)"/>
<path d="" fill="#000000" transform="translate(0,0)"/>
<path d="" fill="#000000" transform="translate(0,0)"/>
<path d="" fill="#000000" transform="translate(0,0)"/>
<path d="" fill="#000000" transform="translate(0,0)"/>
<path d="" fill="#000000" transform="translate(0,0)"/>
<path d="" fill="#000000" transform="translate(0,0)"/>
<path d="" fill="#000000" transform="translate(0,0)"/>
<path d="" fill="#000000" transform="translate(0,0)"/>
<path d="" fill="#000000" transform="translate(0,0)"/>
<path d="" fill="#000000" transform="translate(0,0)"/>
<path d="" fill="#000000" transform="translate(0,0)"/>
<path d="" fill="#000000" transform="translate(0,0)"/>
<path d="" fill="#000000" transform="translate(0,0)"/>
<path d="" fill="#000000" transform="translate(0,0)"/>
<path d="" fill="#000000" transform="translate(0,0)"/>
<path d="" fill="#000000" transform="translate(0,0)"/>
<path d="" fill="#000000" transform="translate(0,0)"/>
<path d="" fill="#000000" transform="translate(0,0)"/>
<path d="" fill="#000000" transform="translate(0,0)"/>
<path d="" fill="#000000" transform="translate(0,0)"/>
<path d="" fill="#000000" transform="translate(0,0)"/>
<path d="" fill="#000000" transform="translate(0,0)"/>
<path d="" fill="#000000" transform="translate(0,0)"/>
<path d="" fill="#000000" transform="translate(0,0)"/>
<path d="" fill="#000000" transform="translate(0,0)"/>
<path d="" fill="#000000" transform="translate(0,0)"/>
<path d="" fill="#000000" transform="translate(0,0)"/>
<path d="" fill="#000000" transform="translate(0,0)"/>
<path d="" fill="#000000" transform="translate(0,0)"/>
<path d="" fill="#000000" transform="translate(0,0)"/>
<path d="" fill="#000000" transform="translate(0,0)"/>
<path d="" fill="#000000" transform="translate(0,0)"/>
<path d="" fill="#000000" transform="translate(0,0)"/>
<path d="" fill="#000000" transform="translate(0,0)"/>
<path d="" fill="#000000" transform="translate(0,0)"/>
<path d="" fill="#000001" transform="translate(0,0)"/>
<path d="" fill="#000000" transform="translate(0,0)"/>
<path d="" fill="#000000" transform="translate(0,0)"/>
<path d="" fill="#000000" transform="translate(0,0)"/>
<path d="" fill="#000000" transform="translate(0,0)"/>
<path d="" fill="#000000" transform="translate(0,0)"/>
</svg>
